<?xml version="1.0" standalone="no"?>
<!DOCTYPE svg PUBLIC "-//W3C//DTD SVG 20010904//EN"
 "http://www.w3.org/TR/2001/REC-SVG-20010904/DTD/svg10.dtd">
<svg version="1.0" xmlns="http://www.w3.org/2000/svg"
 width="1080.000000pt" height="1080.000000pt" viewBox="0 0 1080.000000 1080.000000"
 preserveAspectRatio="xMidYMid meet">

<g transform="translate(0.000000,1080.000000) scale(0.100000,-0.100000)"
fill="#000000" stroke="none">
<path d="M4943 10103 c53 -2 141 -2 195 0 53 1 9 3 -98 3 -107 0 -151 -2 -97
-3z"/>
<path d="M5403 10103 c53 -2 141 -2 195 0 53 1 9 3 -98 3 -107 0 -151 -2 -97
-3z"/>
<path d="M4668 10093 c23 -2 61 -2 85 0 23 2 4 4 -43 4 -47 0 -66 -2 -42 -4z"/>
<path d="M5808 10093 c17 -2 47 -2 65 0 17 2 3 4 -33 4 -36 0 -50 -2 -32 -4z"/>
<path d="M4498 10083 c18 -2 45 -2 60 0 15 2 0 4 -33 4 -33 0 -45 -2 -27 -4z"/>
<path d="M5983 10083 c15 -2 39 -2 55 0 15 2 2 4 -28 4 -30 0 -43 -2 -27 -4z"/>
<path d="M4363 10073 c15 -2 39 -2 55 0 15 2 2 4 -28 4 -30 0 -43 -2 -27 -4z"/>
<path d="M6108 10073 c18 -2 45 -2 60 0 15 2 0 4 -33 4 -33 0 -45 -2 -27 -4z"/>
<path d="M4248 10063 c12 -2 32 -2 45 0 12 2 2 4 -23 4 -25 0 -35 -2 -22 -4z"/>
<path d="M6238 10063 c12 -2 32 -2 45 0 12 2 2 4 -23 4 -25 0 -35 -2 -22 -4z"/>
<path d="M4148 10053 c12 -2 30 -2 40 0 9 3 -1 5 -23 4 -22 0 -30 -2 -17 -4z"/>
<path d="M6343 10053 c15 -2 37 -2 50 0 12 2 0 4 -28 4 -27 0 -38 -2 -22 -4z"/>
<path d="M4048 10043 c12 -2 32 -2 45 0 12 2 2 4 -23 4 -25 0 -35 -2 -22 -4z"/>
<path d="M6463 10043 c9 -2 23 -2 30 0 6 3 -1 5 -18 5 -16 0 -22 -2 -12 -5z"/>
<path d="M3963 10033 c9 -2 23 -2 30 0 6 3 -1 5 -18 5 -16 0 -22 -2 -12 -5z"/>
<path d="M6533 10033 c9 -2 25 -2 35 0 9 3 1 5 -18 5 -19 0 -27 -2 -17 -5z"/>
<path d="M3883 10023 c9 -2 25 -2 35 0 9 3 1 5 -18 5 -19 0 -27 -2 -17 -5z"/>
<path d="M6638 10023 c7 -3 16 -2 19 1 4 3 -2 6 -13 5 -11 0 -14 -3 -6 -6z"/>
<path d="M3813 10013 c9 -2 23 -2 30 0 6 3 -1 5 -18 5 -16 0 -22 -2 -12 -5z"/>
<path d="M6688 10013 c12 -2 30 -2 40 0 9 3 -1 5 -23 4 -22 0 -30 -2 -17 -4z"/>
<path d="M3743 10003 c9 -2 23 -2 30 0 6 3 -1 5 -18 5 -16 0 -22 -2 -12 -5z"/>
<path d="M6763 10003 c9 -2 23 -2 30 0 6 3 -1 5 -18 5 -16 0 -22 -2 -12 -5z"/>
<path d="M3668 9993 c6 -2 18 -2 25 0 6 3 1 5 -13 5 -14 0 -19 -2 -12 -5z"/>
<path d="M6833 9993 c9 -2 23 -2 30 0 6 3 -1 5 -18 5 -16 0 -22 -2 -12 -5z"/>
<path d="M3608 9983 c6 -2 18 -2 25 0 6 3 1 5 -13 5 -14 0 -19 -2 -12 -5z"/>
<path d="M6908 9983 c7 -3 16 -2 19 1 4 3 -2 6 -13 5 -11 0 -14 -3 -6 -6z"/>
<path d="M3548 9973 c6 -2 18 -2 25 0 6 3 1 5 -13 5 -14 0 -19 -2 -12 -5z"/>
<path d="M6958 9973 c6 -2 18 -2 25 0 6 3 1 5 -13 5 -14 0 -19 -2 -12 -5z"/>
<path d="M3488 9963 c6 -2 18 -2 25 0 6 3 1 5 -13 5 -14 0 -19 -2 -12 -5z"/>
<path d="M7018 9963 c6 -2 18 -2 25 0 6 3 1 5 -13 5 -14 0 -19 -2 -12 -5z"/>
<path d="M3438 9953 c6 -2 18 -2 25 0 6 3 1 5 -13 5 -14 0 -19 -2 -12 -5z"/>
<path d="M7078 9953 c7 -3 16 -2 19 1 4 3 -2 6 -13 5 -11 0 -14 -3 -6 -6z"/>
<path d="M3378 9943 c6 -2 18 -2 25 0 6 3 1 5 -13 5 -14 0 -19 -2 -12 -5z"/>
<path d="M7128 9943 c6 -2 18 -2 25 0 6 3 1 5 -13 5 -14 0 -19 -2 -12 -5z"/>
<path d="M3328 9933 c6 -2 18 -2 25 0 6 3 1 5 -13 5 -14 0 -19 -2 -12 -5z"/>
<path d="M7188 9933 c7 -3 16 -2 19 1 4 3 -2 6 -13 5 -11 0 -14 -3 -6 -6z"/>
<path d="M3278 9923 c7 -3 16 -2 19 1 4 3 -2 6 -13 5 -11 0 -14 -3 -6 -6z"/>
<path d="M7238 9923 c7 -3 16 -2 19 1 4 3 -2 6 -13 5 -11 0 -14 -3 -6 -6z"/>
<path d="M3238 9913 c7 -3 16 -2 19 1 4 3 -2 6 -13 5 -11 0 -14 -3 -6 -6z"/>
<path d="M7278 9913 c6 -2 18 -2 25 0 6 3 1 5 -13 5 -14 0 -19 -2 -12 -5z"/>
<path d="M3188 9903 c6 -2 18 -2 25 0 6 3 1 5 -13 5 -14 0 -19 -2 -12 -5z"/>
<path d="M7368 9893 c6 -2 18 -2 25 0 6 3 1 5 -13 5 -14 0 -19 -2 -12 -5z"/>
<path d="M3098 9883 c6 -2 18 -2 25 0 6 3 1 5 -13 5 -14 0 -19 -2 -12 -5z"/>
<path d="M7418 9883 c7 -3 16 -2 19 1 4 3 -2 6 -13 5 -11 0 -14 -3 -6 -6z"/>
<path d="M3058 9873 c7 -3 16 -2 19 1 4 3 -2 6 -13 5 -11 0 -14 -3 -6 -6z"/>
<path d="M7458 9873 c7 -3 16 -2 19 1 4 3 -2 6 -13 5 -11 0 -14 -3 -6 -6z"/>
<path d="M3018 9863 c7 -3 16 -2 19 1 4 3 -2 6 -13 5 -11 0 -14 -3 -6 -6z"/>
<path d="M7538 9853 c7 -3 16 -2 19 1 4 3 -2 6 -13 5 -11 0 -14 -3 -6 -6z"/>
<path d="M2915 9840 c-13 -5 -14 -9 -5 -9 8 0 24 4 35 9 13 5 14 9 5 9 -8 0
-24 -4 -35 -9z"/>
<path d="M7578 9843 c7 -3 16 -2 19 1 4 3 -2 6 -13 5 -11 0 -14 -3 -6 -6z"/>
<path d="M2868 9823 c7 -3 16 -2 19 1 4 3 -2 6 -13 5 -11 0 -14 -3 -6 -6z"/>
<path d="M7688 9813 c7 -3 16 -2 19 1 4 3 -2 6 -13 5 -11 0 -14 -3 -6 -6z"/>
<path d="M7765 9790 c11 -5 27 -9 35 -9 9 0 8 4 -5 9 -11 5 -27 9 -35 9 -9 0
-8 -4 5 -9z"/>
<path d="M2728 9783 c7 -3 16 -2 19 1 4 3 -2 6 -13 5 -11 0 -14 -3 -6 -6z"/>
<path d="M2675 9770 c-13 -6 -15 -9 -5 -9 8 0 22 4 30 9 18 12 2 12 -25 0z"/>
<path d="M2600 9745 c-19 -7 -28 -14 -20 -14 8 0 29 6 45 14 39 17 21 18 -25
0z"/>
<path d="M7905 9745 c17 -8 37 -14 45 -14 8 0 -1 7 -20 14 -46 18 -64 17 -25
0z"/>
<path d="M7980 9720 c8 -5 20 -10 25 -10 6 0 3 5 -5 10 -8 5 -19 10 -25 10 -5
0 -3 -5 5 -10z"/>
<path d="M2450 9690 c-13 -8 -13 -10 2 -10 9 0 20 5 23 10 8 13 -5 13 -25 0z"/>
<path d="M3704 9667 c-5 -14 -12 -89 -13 -148 l-1 -35 -62 7 c-66 9 -203 -4
-259 -23 -41 -13 -63 -29 -52 -37 4 -3 23 -27 41 -53 l33 -47 -81 -41 c-121
-61 -200 -141 -200 -202 0 -30 35 -86 73 -118 l30 -26 101 33 c181 60 359 103
471 115 173 17 156 21 192 -47 36 -67 116 -247 128 -285 l7 -25 -18 25 c-55
80 -119 120 -222 140 -59 12 -196 10 -209 -3 -3 -4 10 -39 29 -80 l35 -74 79
-16 c77 -16 382 -70 457 -80 22 -4 37 -2 37 5 0 5 -14 37 -31 69 -18 33 -30
60 -28 62 2 1 27 13 54 27 28 13 52 26 55 27 3 2 5 -38 5 -88 0 -74 3 -93 17
-103 15 -11 243 -34 513 -51 l90 -6 32 53 c29 48 83 190 83 217 0 16 -144 13
-219 -4 -36 -9 -93 -31 -127 -49 l-62 -33 -7 46 c-9 64 -40 133 -97 220 -39
60 -48 82 -48 117 0 29 4 44 13 44 6 0 22 3 33 6 19 5 22 0 28 -43 10 -67 57
-160 106 -208 l41 -40 97 0 c112 0 162 18 231 80 38 34 109 156 123 213 6 21
10 22 130 22 436 0 970 -48 1358 -122 l165 -31 -3 -74 c-3 -52 -7 -73 -15 -69
-92 39 -243 53 -360 33 -45 -8 -48 -10 -43 -33 9 -35 80 -151 125 -203 l38
-44 89 17 c239 46 480 119 496 150 6 11 8 44 4 79 -4 45 -3 58 7 55 6 -3 49
-17 95 -33 l84 -27 36 29 c105 85 109 173 11 257 -153 131 -559 249 -1081 316
-288 36 -519 51 -898 57 -509 8 -862 -12 -1288 -73 -175 -25 -184 -25 -203 -9
-10 10 -19 24 -19 31 0 17 -110 105 -122 98 -4 -3 -8 -1 -8 5 0 12 -52 41 -75
41 -9 0 -18 -6 -21 -13z m-479 -474 c-2 -10 -4 -19 -5 -20 -6 -7 -5 -49 0 -58
6 -9 6 -31 0 -37 -1 -2 -2 -26 -3 -55 0 -29 -3 -50 -7 -48 -5 3 -4 96 1 103 5
7 4 28 -1 37 -6 9 -6 48 0 60 1 3 4 10 5 15 1 6 3 12 4 15 3 14 9 3 6 -12z
m-32 -15 c-10 -16 -11 -50 -3 -63 6 -9 6 -23 0 -42 -1 -5 -2 -25 -2 -46 0 -31
-3 -35 -15 -25 -8 6 -13 23 -13 37 1 14 1 29 0 34 -6 19 -5 33 2 44 6 7 4 14
-3 19 -7 4 -9 3 -5 -4 3 -6 2 -13 -3 -16 -10 -6 -9 -24 1 -41 3 -5 2 -19 -2
-30 -6 -16 -8 -13 -14 16 -8 44 -1 65 32 102 27 29 38 35 25 15z m970 -50 c-4
-18 -8 -76 -8 -129 l0 -95 -39 50 c-21 28 -64 77 -95 109 -63 65 -61 72 19 82
25 4 50 8 55 10 6 2 25 4 43 4 33 1 33 0 25 -31z"/>
<path d="M3165 9151 c-3 -5 -2 -12 3 -15 5 -3 9 1 9 9 0 17 -3 19 -12 6z"/>
<path d="M3170 9096 c0 -15 4 -25 9 -22 10 7 9 31 -2 42 -4 4 -7 -5 -7 -20z"/>
<path d="M3172 9035 c0 -16 2 -22 5 -12 2 9 2 23 0 30 -3 6 -5 -1 -5 -18z"/>
<path d="M5178 9653 c72 -2 192 -2 265 0 72 1 13 3 -133 3 -146 0 -205 -2
-132 -3z"/>
<path d="M8160 9650 c8 -5 20 -10 25 -10 6 0 3 5 -5 10 -8 5 -19 10 -25 10 -5
0 -3 -5 5 -10z"/>
<path d="M2330 9640 c-8 -5 -10 -10 -5 -10 6 0 17 5 25 10 8 5 11 10 5 10 -5
0 -17 -5 -25 -10z"/>
<path d="M4838 9643 c23 -2 59 -2 80 0 20 2 1 4 -43 4 -44 0 -61 -2 -37 -4z"/>
<path d="M5698 9643 c23 -2 59 -2 80 0 20 2 1 4 -43 4 -44 0 -61 -2 -37 -4z"/>
<path d="M4668 9633 c18 -2 45 -2 60 0 15 2 0 4 -33 4 -33 0 -45 -2 -27 -4z"/>
<path d="M5883 9633 c15 -2 39 -2 55 0 15 2 2 4 -28 4 -30 0 -43 -2 -27 -4z"/>
<path d="M4538 9623 c12 -2 32 -2 45 0 12 2 2 4 -23 4 -25 0 -35 -2 -22 -4z"/>
<path d="M6018 9623 c12 -2 32 -2 45 0 12 2 2 4 -23 4 -25 0 -35 -2 -22 -4z"/>
<path d="M2220 9590 c-30 -16 -50 -29 -45 -29 6 0 35 13 65 29 30 16 51 29 45
29 -5 0 -35 -13 -65 -29z"/>
<path d="M4438 9613 c12 -2 30 -2 40 0 9 3 -1 5 -23 4 -22 0 -30 -2 -17 -4z"/>
<path d="M6138 9613 c12 -2 30 -2 40 0 9 3 -1 5 -23 4 -22 0 -30 -2 -17 -4z"/>
<path d="M4343 9603 c9 -2 25 -2 35 0 9 3 1 5 -18 5 -19 0 -27 -2 -17 -5z"/>
<path d="M6228 9603 c12 -2 30 -2 40 0 9 3 -1 5 -23 4 -22 0 -30 -2 -17 -4z"/>
<path d="M8315 9579 c33 -17 66 -38 74 -47 10 -14 12 -14 9 -2 -4 15 -113 80
-133 79 -5 0 17 -14 50 -30z"/>
<path d="M4263 9593 c9 -2 23 -2 30 0 6 3 -1 5 -18 5 -16 0 -22 -2 -12 -5z"/>
<path d="M6313 9593 c9 -2 25 -2 35 0 9 3 1 5 -18 5 -19 0 -27 -2 -17 -5z"/>
<path d="M4183 9583 c9 -2 23 -2 30 0 6 3 -1 5 -18 5 -16 0 -22 -2 -12 -5z"/>
<path d="M6393 9583 c9 -2 23 -2 30 0 6 3 -1 5 -18 5 -16 0 -22 -2 -12 -5z"/>
<path d="M4113 9573 c9 -2 23 -2 30 0 6 3 -1 5 -18 5 -16 0 -22 -2 -12 -5z"/>
<path d="M6463 9573 c9 -2 23 -2 30 0 6 3 -1 5 -18 5 -16 0 -22 -2 -12 -5z"/>
<path d="M4048 9563 c6 -2 18 -2 25 0 6 3 1 5 -13 5 -14 0 -19 -2 -12 -5z"/>
<path d="M6528 9563 c6 -2 18 -2 25 0 6 3 1 5 -13 5 -14 0 -19 -2 -12 -5z"/>
<path d="M3988 9553 c6 -2 18 -2 25 0 6 3 1 5 -13 5 -14 0 -19 -2 -12 -5z"/>
<path d="M6588 9553 c6 -2 18 -2 25 0 6 3 1 5 -13 5 -14 0 -19 -2 -12 -5z"/>
<path d="M6648 9543 c6 -2 18 -2 25 0 6 3 1 5 -13 5 -14 0 -19 -2 -12 -5z"/>
<path d="M2110 9530 c-9 -6 -10 -10 -3 -10 6 0 15 5 18 10 8 12 4 12 -15 0z"/>
<path d="M6698 9533 c6 -2 18 -2 25 0 6 3 1 5 -13 5 -14 0 -19 -2 -12 -5z"/>
<path d="M6758 9523 c7 -3 16 -2 19 1 4 3 -2 6 -13 5 -11 0 -14 -3 -6 -6z"/>
<path d="M6798 9513 c7 -3 16 -2 19 1 4 3 -2 6 -13 5 -11 0 -14 -3 -6 -6z"/>
<path d="M6848 9503 c7 -3 16 -2 19 1 4 3 -2 6 -13 5 -11 0 -14 -3 -6 -6z"/>
<path d="M2023 9479 c-35 -22 -46 -37 -15 -20 22 13 58 40 52 41 -3 0 -20 -10
-37 -21z"/>
<path d="M6888 9493 c7 -3 16 -2 19 1 4 3 -2 6 -13 5 -11 0 -14 -3 -6 -6z"/>
<path d="M6928 9483 c7 -3 16 -2 19 1 4 3 -2 6 -13 5 -11 0 -14 -3 -6 -6z"/>
<path d="M7068 9443 c7 -3 16 -2 19 1 4 3 -2 6 -13 5 -11 0 -14 -3 -6 -6z"/>
<path d="M2073 9194 c-216 -106 -393 -197 -393 -202 0 -6 9 -38 20 -73 97
-314 633 -599 1475 -787 449 -101 1053 -177 1560 -197 340 -13 399 -14 380 -6
-513 225 -642 284 -654 296 -13 13 -13 17 -1 28 8 8 165 72 347 143 l333 129
-98 7 c-53 4 -188 12 -300 18 -727 39 -1360 186 -1589 368 -37 30 -60 59 -80
101 l-27 58 -185 99 c-102 54 -233 124 -291 155 l-105 56 -392 -193z"/>
<path d="M1835 9328 c-24 -24 -30 -33 -14 -23 23 17 65 65 56 65 -1 0 -21 -19
-42 -42z"/>
<path d="M2020 9240 c-9 -6 -10 -10 -3 -10 6 0 15 5 18 10 8 12 4 12 -15 0z"/>
<path d="M3104 9228 l-19 -23 23 19 c21 18 27 26 19 26 -2 0 -12 -10 -23 -22z"/>
<path d="M3050 9155 c-7 -9 -8 -15 -2 -15 5 0 12 7 16 15 3 8 4 15 2 15 -2 0
-9 -7 -16 -15z"/>
<path d="M8195 9119 c-4 -6 -5 -12 -2 -15 2 -3 7 2 10 11 7 17 1 20 -8 4z"/>
<path d="M1690 9085 c0 -9 6 -12 15 -9 8 4 15 7 15 9 0 2 -7 5 -15 9 -9 3 -15
0 -15 -9z"/>
<path d="M8158 9063 c7 -3 16 -2 19 1 4 3 -2 6 -13 5 -11 0 -14 -3 -6 -6z"/>
<path d="M8850 8819 c-34 -73 -189 -229 -300 -301 -497 -324 -1383 -543 -2540
-630 -273 -20 -1274 -17 -1550 5 -507 41 -921 98 -1277 178 -152 33 -143 32
-143 19 0 -5 3 -9 7 -9 5 1 11 0 16 -1 4 -1 13 -3 20 -4 9 -1 12 -53 12 -223
0 -122 2 -224 5 -227 3 -2 5 94 5 215 0 201 5 271 17 222 2 -10 4 -115 3 -235
0 -119 2 -215 5 -213 3 2 5 98 5 214 0 132 4 215 10 225 8 10 11 -51 10 -214
0 -126 3 -226 7 -224 5 3 8 0 8 -5 0 -6 5 -11 11 -11 6 0 7 5 2 13 -4 6 -8 95
-8 197 0 102 -3 190 -6 195 -8 16 -5 35 6 35 6 0 10 -76 11 -207 1 -201 6
-249 25 -237 5 3 6 11 2 17 -9 13 -11 417 -3 422 3 2 5 -91 5 -207 0 -115 3
-212 7 -215 5 -2 6 -8 3 -13 -7 -11 103 -35 337 -74 l187 -32 30 -42 c58 -79
187 -142 294 -142 l39 0 -4 70 -4 71 36 -3 35 -3 -5 -85 c-7 -124 -6 -600 2
-637 l7 -32 -74 36 c-41 19 -92 37 -115 40 -22 3 -40 7 -40 9 0 3 16 28 35 57
36 55 65 147 65 207 0 53 -25 159 -52 218 l-23 54 -64 -58 c-67 -61 -119 -133
-141 -196 l-14 -37 -33 30 c-53 46 -154 93 -245 113 -28 6 -28 6 -28 -46 0
-66 23 -166 51 -219 46 -90 146 -169 215 -169 26 0 24 -3 -23 -24 -44 -21 -57
-23 -95 -14 -23 5 -78 8 -122 5 -130 -9 -252 -81 -367 -218 -26 -31 -38 -54
-33 -59 18 -18 154 -60 228 -71 49 -7 93 -8 128 -2 l54 9 -14 -65 c-7 -36 -12
-87 -9 -112 l4 -46 -79 31 c-43 17 -78 37 -78 43 0 23 -114 129 -165 153 -41
20 -65 24 -140 24 -100 0 -171 -23 -261 -85 l-47 -32 44 -38 c50 -43 134 -90
194 -109 56 -17 61 -25 37 -55 -12 -15 -30 -50 -41 -79 -20 -55 -46 -214 -37
-224 12 -11 120 21 196 59 54 27 93 56 124 90 25 28 46 55 46 60 0 5 4 9 8 9
10 0 267 -153 342 -203 l52 -35 -59 5 c-74 7 -164 -15 -262 -64 l-74 -37 57
-52 c60 -55 145 -104 213 -124 l41 -13 -33 -61 c-32 -57 -55 -129 -70 -218 -6
-36 -4 -38 21 -38 41 0 143 29 197 56 69 36 132 97 163 161 22 45 27 69 28
131 0 43 2 66 4 54 2 -13 28 -61 57 -106 30 -46 88 -152 129 -237 41 -85 107
-208 147 -274 171 -286 231 -450 245 -671 l7 -102 -59 -6 c-32 -3 -210 -13
-394 -22 -184 -9 -338 -20 -343 -24 -4 -3 20 -6 53 -5 58 1 59 1 56 -24 -2
-14 -7 -34 -11 -43 -4 -9 -4 -21 -1 -27 4 -5 2 -12 -4 -16 -10 -6 -11 -3 -14
37 0 12 -9 22 -19 24 -18 2 -18 2 -1 -17 16 -17 13 -24 -9 -20 -5 1 -6 -3 -2
-9 3 -6 11 -8 16 -5 5 4 9 1 9 -4 0 -6 0 -14 0 -18 0 -5 -3 -8 -7 -8 -5 0 -12
-3 -18 -6 -5 -4 -18 -5 -28 -3 -11 1 -16 -1 -12 -4 4 -4 12 -7 18 -7 7 0 12
-6 12 -12 0 -7 4 -13 9 -12 5 0 13 -5 17 -13 7 -10 9 -10 9 0 0 7 4 11 8 8 5
-3 9 1 9 9 0 8 -4 13 -8 12 -4 -1 -7 3 -7 8 0 6 4 9 10 7 5 -1 7 2 4 6 -3 5 3
17 14 27 22 20 28 7 8 -14 -10 -11 -10 -13 0 -7 7 5 12 1 12 -9 0 -9 -4 -14
-9 -11 -7 5 -7 -37 0 -81 3 -20 -2 -34 -10 -28 -5 3 -8 16 -5 30 2 13 0 26 -6
30 -6 4 -7 -1 -3 -11 5 -13 3 -15 -8 -8 -8 5 -23 9 -34 9 -11 1 -19 6 -18 11
1 6 -4 11 -10 11 -7 0 -13 -13 -14 -29 0 -15 3 -28 8 -28 5 0 8 5 7 12 -2 7 5
12 15 13 9 0 17 -4 16 -10 -1 -5 -5 -9 -10 -7 -5 1 -9 -3 -9 -9 0 -6 6 -9 14
-6 8 3 16 2 18 -3 2 -5 152 -61 333 -125 182 -64 412 -145 513 -180 l182 -65
-2 1098 -3 1097 -43 124 c-48 141 -119 296 -188 409 -40 67 -51 96 -80 227
-42 189 -82 416 -90 514 -6 65 17 384 32 459 4 20 10 22 70 22 36 0 64 -3 62
-7 -2 -5 -15 -31 -31 -60 -35 -68 -53 -172 -41 -238 l9 -50 40 3 c63 5 162 41
208 76 l42 32 3 113 3 114 127 -6 c70 -4 194 -7 276 -7 l149 0 -6 -1972 c-3
-1085 -2 -2081 1 -2214 l7 -241 188 106 187 105 0 177 0 177 123 50 c67 27
500 203 961 391 462 187 841 343 843 345 2 2 -15 2 -39 0 -24 -2 -225 -13
-448 -24 -223 -11 -571 -29 -773 -40 -203 -11 -388 -20 -413 -20 l-44 0 3 108
c2 103 4 111 43 192 51 106 126 205 294 390 73 80 196 224 274 320 222 276
417 462 584 558 84 49 215 101 380 151 l127 38 3 87 3 87 -43 -5 c-24 -3 -83
-8 -131 -12 l-88 -6 44 61 c47 63 82 151 96 241 l8 53 -61 -6 c-77 -7 -160
-38 -227 -82 -43 -30 -51 -32 -55 -17 -19 59 -81 165 -125 215 l-52 58 -25
-42 c-68 -114 -91 -269 -56 -373 19 -54 104 -153 140 -162 31 -8 25 -16 -39
-52 -28 -17 -101 -74 -162 -127 -60 -53 -148 -122 -195 -153 -47 -30 -112 -76
-145 -102 -87 -67 -83 -67 -74 -2 12 95 29 333 29 419 0 202 24 248 254 482
195 199 286 273 414 339 71 37 100 46 209 63 69 10 143 24 164 29 22 6 57 15
79 20 l40 11 0 94 c0 54 -4 95 -10 95 -5 0 -47 -9 -93 -19 -45 -11 -167 -31
-269 -46 -354 -49 -401 -73 -586 -305 -55 -69 -153 -175 -218 -236 -173 -162
-188 -196 -224 -507 -48 -414 -115 -706 -198 -860 -44 -83 -198 -167 -304
-167 l-28 0 2 1168 3 1167 115 7 c207 13 554 39 617 47 l63 7 29 -63 c40 -84
109 -156 189 -195 56 -28 78 -33 159 -36 90 -4 95 -3 135 24 49 34 109 111
138 178 12 27 24 79 27 121 l6 73 73 14 74 15 30 -54 c43 -76 109 -139 183
-174 34 -16 68 -29 75 -29 9 0 12 39 12 164 l0 163 63 18 c397 109 771 273
937 411 73 60 176 172 207 225 54 91 64 150 61 369 l-3 193 -25 -54z m-5044
-2107 c-21 -2 -42 0 -47 5 -4 4 13 6 39 3 l47 -5 -39 -3z m-31 -122 c9 -16 13
-30 11 -30 -3 0 -12 14 -21 30 -9 17 -13 30 -11 30 3 0 12 -13 21 -30z m231
-58 c47 -24 110 -90 147 -153 14 -24 46 -105 73 -179 80 -230 150 -395 188
-444 47 -62 100 -175 130 -278 26 -90 62 -286 53 -294 -3 -3 -40 23 -83 58
-75 60 -112 103 -233 272 -60 84 -224 250 -316 322 -75 58 -238 166 -285 189
l-35 16 61 62 c33 34 73 89 90 122 26 54 29 70 29 160 0 73 -5 109 -17 132
-16 32 -16 32 11 37 54 9 147 -2 187 -22z m-529 -454 c-3 -8 -6 -5 -6 6 -1 11
2 17 5 13 3 -3 4 -12 1 -19z m3618 12 c-3 -5 -12 -10 -18 -10 -7 0 -6 4 3 10
19 12 23 12 15 0z m-3608 -62 c-3 -7 -5 -2 -5 12 0 14 2 19 5 13 2 -7 2 -19 0
-25z m143 8 c0 -2 -8 -10 -17 -17 -16 -13 -17 -12 -4 4 13 16 21 21 21 13z
m-40 -31 c0 -2 -10 -9 -22 -15 -22 -11 -22 -10 -4 4 21 17 26 19 26 11z m-50
-32 c0 -1 -9 -7 -20 -13 -15 -8 -20 -8 -20 3 0 7 9 13 20 13 11 0 20 -1 20 -3z
m280 -1888 l1 20 9 -20 9 -20 1 20 c1 16 3 17 8 5 8 -17 38 -20 35 -4 -1 6 4
11 11 11 7 0 13 -6 13 -13 0 -7 -5 -12 -10 -11 -5 1 -11 -3 -14 -10 -3 -7 3
-11 15 -8 11 2 19 -2 19 -10 0 -8 -5 -13 -11 -12 -5 1 -11 -7 -13 -18 -4 -17
-2 -18 7 -5 10 13 11 13 7 -1 -3 -9 0 -22 6 -29 9 -10 9 -11 -2 -5 -10 6 -12
2 -7 -13 4 -11 2 -23 -4 -27 -5 -3 -10 -11 -10 -17 0 -6 8 -4 18 5 15 14 19
14 19 3 0 -8 -3 -15 -6 -14 -18 2 -20 -4 -9 -24 7 -13 13 -26 14 -30 1 -5 2
-9 4 -10 7 -9 7 -39 0 -43 -5 -3 -7 3 -5 12 1 10 -3 24 -9 32 -6 8 -10 16 -8
18 1 1 -1 2 -5 1 -5 -2 -6 -7 -4 -13 2 -5 4 -22 6 -38 2 -22 0 -25 -11 -16 -8
6 -14 8 -14 4 0 -4 -7 -2 -15 5 -8 7 -15 9 -15 5 0 -4 -7 -2 -15 5 -8 6 -14
15 -13 18 0 4 -1 21 -2 37 -2 30 -2 30 -10 5 -7 -21 -8 -22 -10 -5 -1 11 -3
28 -5 38 -2 9 1 14 7 11 6 -4 8 12 5 46 -5 50 -17 82 -17 45 0 -10 -3 -16 -6
-12 -4 3 -3 14 1 24 9 20 11 28 14 58 l2 20 9 -20 9 -20 1 20z m120 -30 c0 -5
-5 -3 -10 5 -5 8 -10 20 -10 25 0 6 5 3 10 -5 5 -8 10 -19 10 -25z m25 6 c3
-5 2 -12 -3 -15 -5 -3 -9 1 -9 9 0 17 3 19 12 6z m-14 -38 c13 -16 12 -17 -3
-4 -17 13 -22 21 -14 21 2 0 10 -8 17 -17z m-16 -12 c3 -5 2 -12 -3 -15 -5 -3
-9 1 -9 9 0 17 3 19 12 6z m12 -28 c-4 -3 -2 -12 4 -19 7 -8 6 -14 -2 -20 -7
-4 -9 -3 -5 4 3 6 2 13 -4 17 -10 6 -5 25 7 25 4 0 3 -3 0 -7z m-210 -30 c-4
-3 -2 -11 3 -18 7 -8 5 -12 -4 -12 -8 0 -12 7 -11 16 5 22 4 21 12 21 3 0 3
-3 0 -7z m29 -109 c2 -12 0 -14 -9 -5 -6 6 -12 18 -13 27 -2 12 0 14 9 5 6 -6
12 -18 13 -27z m200 0 c-1 -8 -6 -17 -12 -21 -5 -4 -6 -4 -2 1 4 5 3 14 -2 21
-7 8 -5 12 4 12 8 0 13 -6 12 -13z m-152 -9 c-4 -8 -8 -15 -10 -15 -2 0 -4 7
-4 15 0 8 4 15 10 15 5 0 7 -7 4 -15z m143 -40 c0 -8 -4 -12 -9 -9 -5 3 -6 10
-3 15 9 13 12 11 12 -6z"/>
<path d="M3805 4040 c4 -19 10 -39 16 -44 11 -12 12 -29 0 -22 -4 3 -6 -6 -3
-19 2 -14 -2 -33 -9 -42 -10 -12 -10 -15 -1 -9 14 8 21 -6 26 -50 2 -16 8 -30
15 -30 6 -1 12 -2 14 -4 1 -1 10 -3 19 -5 12 -2 15 3 13 17 -3 12 -7 23 -10
26 -2 3 0 11 6 19 9 10 8 17 -1 28 -8 10 -9 19 -2 28 10 13 9 41 -3 70 -4 10
-2 24 6 34 8 10 9 14 2 10 -7 -4 -16 0 -22 10 -8 14 -10 15 -11 3 0 -13 -1
-13 -10 0 -9 13 -10 13 -10 0 0 -13 -1 -13 -10 0 -9 13 -10 13 -10 0 0 -13 -1
-13 -10 0 -8 11 -9 5 -5 -20z m67 -10 c-2 -7 0 -20 4 -29 11 -25 11 -49 1 -63
-6 -10 -7 -9 -4 4 3 9 -1 24 -9 35 -14 17 -15 17 -10 -2 3 -11 8 -37 12 -58 5
-27 9 -35 15 -25 6 9 9 9 9 1 0 -6 -5 -15 -10 -18 -7 -4 -7 -12 0 -25 11 -20
-3 -39 -15 -20 -4 6 -10 8 -14 6 -10 -7 -9 38 2 45 5 4 4 25 -2 50 l-11 44 6
-44 c4 -37 3 -42 -10 -32 -10 8 -12 21 -6 47 6 24 4 44 -5 61 -17 33 -13 40
22 38 17 -1 27 -7 25 -15z"/>
<path d="M3830 4016 c4 -12 11 -21 16 -21 5 0 16 -4 24 -10 13 -8 13 -7 1 8
-7 9 -11 23 -8 30 3 8 -3 13 -18 13 -19 0 -22 -4 -15 -20z m17 -8 c-3 -8 -6
-5 -6 6 -1 11 2 17 5 13 3 -3 4 -12 1 -19z"/>
<path d="M3856 3871 c-3 -4 1 -17 10 -27 14 -18 15 -18 5 2 -6 12 -7 24 -4 28
3 3 4 6 0 6 -3 0 -8 -4 -11 -9z"/>
<path d="M9200 8203 c-192 -77 -276 -188 -283 -371 l-2 -43 -155 -60 c-85 -33
-158 -63 -163 -68 -4 -4 -7 -38 -5 -74 l3 -67 169 100 c93 55 171 100 173 100
2 0 25 -17 51 -39 82 -68 105 -76 217 -76 96 0 104 2 176 37 41 20 92 52 114
71 l40 34 -64 41 c-69 45 -143 76 -209 87 l-42 7 19 31 c31 51 53 142 54 230
2 97 0 98 -93 60z"/>
<path d="M2818 8153 c7 -3 16 -2 19 1 4 3 -2 6 -13 5 -11 0 -14 -3 -6 -6z"/>
<path d="M2858 8143 c7 -3 16 -2 19 1 4 3 -2 6 -13 5 -11 0 -14 -3 -6 -6z"/>
<path d="M2945 8121 c11 -10 85 -29 85 -22 0 4 -20 12 -45 18 -25 6 -43 8 -40
4z"/>
<path d="M8863 7551 c-28 -9 -76 -36 -107 -59 -63 -48 -72 -71 -70 -190 1 -60
7 -84 33 -136 40 -82 123 -159 222 -209 89 -44 87 -46 88 95 1 70 -4 114 -19
160 -11 34 -20 64 -20 64 0 1 25 5 56 9 68 8 148 35 215 71 l50 28 -38 38
c-84 86 -215 148 -310 148 -26 -1 -71 -9 -100 -19z"/>
<path d="M8153 7370 c0 -47 2 -66 4 -42 2 23 2 61 0 85 -2 23 -4 4 -4 -43z"/>
<path d="M2982 7238 c3 -146 6 -167 26 -205 27 -51 27 -53 2 -53 -19 0 -20 -7
-20 -165 l0 -165 27 -6 c40 -10 147 11 206 40 80 39 147 103 157 151 23 97 3
227 -46 310 -53 90 -173 183 -302 234 l-54 21 4 -162z"/>
<path d="M6379 7253 c-75 -78 -115 -141 -145 -230 l-21 -62 -34 25 c-64 49
-176 90 -296 109 -42 7 -43 6 -43 -22 0 -44 38 -189 61 -236 82 -162 202 -237
379 -237 l79 0 60 56 c161 148 181 357 58 601 l-33 64 -65 -68z"/>
<path d="M1645 6988 c-76 -101 -125 -217 -125 -294 l0 -33 -57 30 c-73 37
-151 56 -259 65 l-85 7 7 -29 c43 -188 136 -324 263 -387 62 -30 72 -32 176
-32 72 0 118 5 133 13 34 20 108 125 132 190 57 150 4 361 -131 525 -3 5 -28
-20 -54 -55z"/>
<path d="M8751 6614 c-11 -31 -19 -60 -16 -64 3 -5 -1 -10 -7 -12 -10 -4 -13
-36 -13 -119 0 -98 3 -120 23 -160 30 -61 101 -130 163 -160 51 -23 51 -23
117 -6 113 30 188 91 241 196 42 82 68 271 38 271 -58 0 -213 -70 -269 -123
l-37 -34 -26 53 c-28 57 -94 136 -154 183 l-38 31 -22 -56z"/>
<path d="M1810 6270 c-58 -16 -150 -44 -204 -63 l-99 -35 -46 33 c-187 135
-412 104 -625 -83 -45 -39 -46 -38 74 -101 95 -50 168 -71 243 -71 56 0 59 -1
45 -17 -34 -39 -51 -116 -56 -252 l-4 -134 28 7 c16 4 66 25 111 47 109 53
192 130 235 217 31 62 33 73 33 167 -1 87 -4 105 -24 138 -13 20 -18 37 -12
37 6 0 11 -7 11 -15 0 -9 7 -18 16 -22 8 -3 107 16 220 43 l204 49 0 43 c0 52
-3 52 -150 12z"/>
<path d="M8153 6080 c0 -47 2 -66 4 -42 2 23 2 61 0 85 -2 23 -4 4 -4 -43z"/>
<path d="M8590 6002 l0 -100 53 -12 c56 -12 194 -35 267 -45 l45 -5 -3 -44
c-14 -171 106 -349 301 -445 49 -24 90 -41 93 -39 2 3 9 41 14 85 12 111 -2
215 -45 316 -6 14 -2 17 26 17 97 1 339 89 339 124 0 19 -78 89 -152 136 -153
100 -303 105 -451 16 l-58 -35 -182 58 c-100 32 -197 62 -214 65 l-33 8 0
-100z"/>
<path d="M1775 6076 c-44 -19 -113 -101 -148 -176 -39 -82 -48 -200 -22 -299
17 -66 86 -214 105 -226 36 -22 181 193 210 313 9 36 14 41 26 32 12 -11 14
13 14 173 0 159 -2 186 -16 191 -28 11 -138 6 -169 -8z"/>
<path d="M7323 5852 c-106 -38 -184 -115 -250 -244 -40 -79 -36 -82 107 -82
96 1 141 9 212 39 13 5 15 2 11 -15 -9 -35 16 -141 54 -222 20 -43 39 -78 42
-78 4 0 28 22 54 48 l47 48 -2 238 -3 239 -26 19 c-39 30 -176 35 -246 10z"/>
<path d="M8595 5626 l0 -211 46 -45 c70 -69 247 -165 267 -146 12 13 14 212 3
268 -32 154 -129 272 -267 327 l-49 19 0 -212z"/>
<path d="M7081 3705 c-982 -481 -1789 -875 -1794 -875 -9 0 -1 -2129 8 -2138
2 -2 808 390 1792 872 l1788 875 3 1070 c1 589 -1 1071 -5 1071 -5 -1 -811
-394 -1792 -875z m1384 -144 c-6 -5 -21 -11 -35 -15 -21 -5 -20 -3 5 9 35 17
42 18 30 6z m100 -33 c19 -22 19 -22 -10 2 -48 40 -51 43 -30 32 11 -6 29 -21
40 -34z m-179 -1 c-10 -7 -39 -28 -65 -47 -25 -19 -40 -27 -33 -17 15 17 101
77 111 76 3 0 -2 -6 -13 -12z m201 -114 c-2 -16 -4 -3 -4 27 0 30 2 43 4 28 2
-16 2 -40 0 -55z m-481 -23 c3 0 14 5 25 10 10 6 19 8 19 6 0 -3 -13 -12 -30
-21 l-30 -16 2 48 c1 44 2 45 5 11 2 -21 6 -38 9 -38z m-86 55 c0 -2 -10 -9
-22 -15 -22 -11 -22 -10 -4 4 21 17 26 19 26 11z m400 -5 c-20 -13 -33 -13
-25 0 3 6 14 10 23 10 15 0 15 -2 2 -10z m45 -11 c8 -25 15 -19 -73 -63 -71
-36 -73 -36 -67 -14 9 29 46 81 52 74 3 -2 -4 -15 -16 -27 -39 -42 -25 -51 32
-23 59 30 70 43 55 61 -7 9 -7 13 0 13 6 0 14 -9 17 -21z m-185 7 c0 -2 -8
-10 -17 -17 -16 -13 -17 -12 -4 4 13 16 21 21 21 13z m235 -96 c-3 -5 -12 -10
-18 -10 -7 0 -6 4 3 10 19 12 23 12 15 0z m-40 -20 c-3 -5 -12 -10 -18 -10 -7
0 -6 4 3 10 19 12 23 12 15 0z m75 6 c0 -2 -7 -7 -16 -10 -8 -3 -12 -2 -9 4 6
10 25 14 25 6z m-571 -10 c-2 -2 -15 -9 -29 -15 -24 -11 -24 -11 -6 3 16 13
49 24 35 12z m228 -38 c-3 -7 -5 -2 -5 12 0 14 2 19 5 13 2 -7 2 -19 0 -25z
m303 28 c0 -2 -7 -7 -16 -10 -8 -3 -12 -2 -9 4 6 10 25 14 25 6z m-394 -25
c-14 -15 -16 -35 -14 -112 3 -94 3 -94 28 -92 22 2 23 1 7 -8 -39 -23 -47 -6
-47 105 0 89 3 107 18 115 25 15 27 13 8 -8z m339 -20 c-19 -38 -62 -71 -92
-71 -28 0 -54 43 -35 62 8 8 10 6 6 -9 -3 -11 2 -25 11 -33 23 -19 79 9 100
50 8 16 18 30 21 30 2 0 -2 -13 -11 -29z m-605 -6 c0 -2 -22 -16 -50 -30 -27
-14 -50 -23 -50 -20 0 2 21 16 48 29 53 28 52 28 52 21z m67 -27 c-3 -8 -6 -5
-6 6 -1 11 2 17 5 13 3 -3 4 -12 1 -19z m280 -15 c-3 -10 -5 -4 -5 12 0 17 2
24 5 18 2 -7 2 -21 0 -30z m-330 -230 c-1 -49 -3 -9 -3 87 0 96 2 136 3 88 2
-49 2 -127 0 -175z m674 240 c-5 -10 -24 -31 -42 -48 -29 -27 -29 -25 7 17 42
51 50 58 35 31z m-563 -130 l-2 -128 -3 118 c-3 83 -7 117 -16 117 -8 0 -6 4
3 10 8 5 16 10 18 10 1 0 1 -57 0 -127z m236 52 c5 -22 4 -26 -4 -15 -5 8 -10
24 -10 34 0 26 6 18 14 -19z m-614 -19 c0 -2 -7 -7 -16 -10 -8 -3 -12 -2 -9 4
6 10 25 14 25 6z m148 -101 c-1 -90 -5 -76 -10 32 -2 40 0 67 4 60 4 -7 7 -48
6 -92z m-113 -162 c4 -16 10 -21 23 -16 28 10 54 36 68 68 7 17 13 24 14 17 0
-26 -34 -71 -64 -86 -51 -25 -56 -11 -54 143 l2 136 3 -120 c2 -66 5 -130 8
-142z m-75 243 c0 -2 -7 -7 -16 -10 -8 -3 -12 -2 -9 4 6 10 25 14 25 6z m835
-6 c-3 -5 -12 -10 -18 -10 -7 0 -6 4 3 10 19 12 23 12 15 0z m-115 -26 c0 -2
-9 0 -20 6 -11 6 -20 13 -20 16 0 2 9 0 20 -6 11 -6 20 -13 20 -16z m-994 -9
c-11 -8 -25 -15 -30 -15 -6 1 0 7 14 15 32 19 40 18 16 0z m117 -39 c26 8 21
2 -10 -15 -22 -11 -23 -10 -21 31 1 38 2 39 5 10 4 -29 7 -32 26 -26z m756
-32 c-7 -8 -22 -20 -33 -25 -13 -6 -11 -2 7 11 18 15 27 32 28 53 2 31 2 31 6
4 3 -16 -1 -35 -8 -43z m-1029 51 c0 -2 -22 -16 -50 -30 -27 -14 -50 -23 -50
-20 0 2 21 16 48 29 53 28 52 28 52 21z m367 -62 c-2 -16 -4 -5 -4 22 0 28 2
40 4 28 2 -13 2 -35 0 -50z m-351 -39 c-5 -13 -97 -65 -113 -64 -4 1 18 14 50
31 57 29 57 30 59 77 1 45 2 45 5 8 3 -21 2 -44 -1 -52z m113 2 c-2 -2 -15 -9
-29 -15 -24 -11 -24 -11 -6 3 16 13 49 24 35 12z m808 -8 c-16 -10 -64 -10
-70 0 -3 4 15 7 38 7 24 0 39 -3 32 -7z m-654 -18 l-33 -20 0 -101 0 -101 28
6 c22 5 24 4 9 -5 -39 -23 -47 -6 -47 105 0 105 0 105 28 120 40 22 52 19 15
-4z m-216 -67 c-3 -10 -5 -4 -5 12 0 17 2 24 5 18 2 -7 2 -21 0 -30z m-87 22
c0 -2 -10 -9 -22 -15 -22 -11 -22 -10 -4 4 21 17 26 19 26 11z m37 -292 c-1
-54 -3 -10 -3 97 0 107 2 151 3 98 2 -54 2 -142 0 -195z m113 139 c0 -137 5
-151 50 -153 24 -2 24 -2 2 -6 -14 -3 -32 3 -43 13 -17 15 -19 31 -19 136 0
76 -4 118 -11 118 -5 0 -7 5 -4 10 18 30 25 -2 25 -118z m-464 103 c-11 -8
-25 -15 -30 -15 -6 1 0 7 14 15 32 19 40 18 16 0z m117 -39 c26 8 21 2 -10
-15 -22 -11 -23 -10 -21 31 1 38 2 39 5 10 4 -29 7 -32 26 -26z m932 44 c-3
-5 -12 -10 -18 -10 -7 0 -6 4 3 10 19 12 23 12 15 0z m-111 -41 c-22 -25 -103
-79 -118 -79 -6 0 13 14 41 30 29 17 60 42 69 55 9 14 19 23 22 20 3 -3 -3
-15 -14 -26z m71 21 c-3 -5 -12 -10 -18 -10 -7 0 -6 4 3 10 19 12 23 12 15 0z
m-777 -215 c-2 -184 -6 -161 -10 57 -2 75 0 131 4 125 4 -7 7 -88 6 -182z
m-259 111 c-2 -2 -15 -9 -29 -15 -24 -11 -24 -11 -6 3 16 13 49 24 35 12z
m814 -3 c-7 -2 -19 -2 -25 0 -7 3 -2 5 12 5 14 0 19 -2 13 -5z m-660 -23 l-33
-20 0 -101 0 -101 28 6 c22 5 24 4 9 -5 -39 -23 -47 -6 -47 105 0 105 0 105
28 120 40 22 52 19 15 -4z m516 -56 c-7 -8 -22 -20 -33 -25 -13 -6 -11 -2 7
11 20 16 27 31 29 58 l1 37 4 -33 c3 -18 -1 -40 -8 -48z m-732 -11 c-3 -10 -5
-4 -5 12 0 17 2 24 5 18 2 -7 2 -21 0 -30z m-122 -13 c-27 -4 -59 -10 -70 -14
-13 -5 -11 -2 5 8 14 8 45 15 70 14 l45 -1 -50 -7z m185 -118 c0 -137 5 -151
50 -153 24 -2 24 -2 2 -6 -14 -3 -32 3 -43 13 -17 15 -19 31 -19 136 0 76 -4
118 -11 118 -5 0 -7 5 -4 10 18 30 25 -2 25 -118z m-280 93 c0 -2 -10 -9 -22
-15 -22 -11 -22 -10 -4 4 21 17 26 19 26 11z m-50 -28 c0 -2 -17 -19 -37 -38
l-38 -34 34 38 c33 34 41 42 41 34z m104 -56 c4 -5 -3 -7 -14 -4 -23 6 -26 13
-6 13 8 0 17 -4 20 -9z m-57 -19 c-20 -22 -22 -38 -4 -45 7 -3 6 -6 -5 -6 -28
-2 -31 19 -7 45 26 28 40 33 16 6z m-129 -27 c-6 -14 -13 -23 -15 -21 -5 5 15
46 22 46 3 0 -1 -11 -7 -25z m312 -22 c11 -14 20 -37 19 -52 -1 -24 -2 -23 -9
6 -12 52 -27 63 -82 63 -27 0 -47 3 -44 8 2 4 25 6 50 4 35 -3 51 -10 66 -29z
m279 -39 c-7 -8 -22 -20 -33 -25 -13 -6 -11 -2 7 11 20 16 27 31 29 58 l1 37
4 -33 c3 -18 -1 -40 -8 -48z m-414 56 c-3 -5 -14 -10 -23 -9 -14 0 -13 2 3 9
27 11 27 11 20 0z m541 -5 c-11 -8 -25 -15 -30 -15 -6 1 0 7 14 15 32 19 40
18 16 0z m-911 -35 c-3 -5 -12 -10 -18 -10 -7 0 -6 4 3 10 19 12 23 12 15 0z
m203 -89 c15 -13 20 -20 12 -16 -38 20 -50 39 -48 79 l1 41 4 -40 c3 -28 12
-47 31 -64z m-122 68 c17 -18 19 -40 22 -181 2 -88 0 -164 -5 -169 -4 -4 -8
69 -8 162 0 167 0 171 -24 190 -13 10 -19 19 -14 19 6 0 18 -9 29 -21z m-141
-9 c-3 -5 -12 -10 -18 -10 -7 0 -6 4 3 10 19 12 23 12 15 0z m-62 -53 c-15
-18 -29 -30 -31 -25 -3 6 46 57 56 58 2 0 -9 -15 -25 -33z m626 -21 c-7 -19
-18 -37 -24 -40 -6 -2 -2 15 10 39 24 50 32 51 14 1z m-872 -273 c-1 -59 -3
-13 -3 102 0 116 2 164 3 108 2 -56 2 -151 0 -210z m761 275 c-3 -24 -60 -68
-87 -68 -9 0 -22 10 -30 23 -14 22 -14 22 7 3 20 -18 22 -18 59 0 28 14 38 25
37 42 0 12 3 22 8 22 5 0 8 -10 6 -22z m-568 8 c0 -2 -7 -7 -16 -10 -8 -3 -12
-2 -9 4 6 10 25 14 25 6z m490 0 c0 -2 -11 -6 -25 -8 -13 -3 -22 -1 -19 3 5 9
44 13 44 5z m-530 -20 c0 -2 -7 -7 -16 -10 -8 -3 -12 -2 -9 4 6 10 25 14 25 6z
m-283 -98 c-2 -18 -4 -6 -4 27 0 33 2 48 4 33 2 -15 2 -42 0 -60z m469 54 c1
-18 1 -19 -3 -2 -6 27 -35 25 -75 -6 l-33 -26 33 31 c39 38 76 39 78 3z m484
-17 c-7 -8 -17 -15 -23 -15 -6 0 -2 7 9 15 25 19 30 19 14 0z m-288 -32 c-3
-16 -7 -22 -10 -15 -4 13 4 42 11 42 2 0 2 -12 -1 -27z m-305 -15 c-3 -8 -6
-5 -6 6 -1 11 2 17 5 13 3 -3 4 -12 1 -19z m563 18 c0 -2 -7 -7 -16 -10 -8 -3
-12 -2 -9 4 6 10 25 14 25 6z m-693 -258 c-1 -46 -3 -9 -3 82 0 91 2 128 3 83
2 -46 2 -120 0 -165z m633 227 c0 -7 -57 -35 -72 -35 -7 0 5 9 27 19 48 23 45
22 45 16z m-514 -262 c-3 -7 -11 -13 -18 -12 -10 0 -10 2 0 6 8 3 13 42 14
136 l2 132 3 -124 c2 -69 1 -131 -1 -138z m412 220 c-10 -2 -28 -2 -40 0 -13
2 -5 4 17 4 22 1 32 -1 23 -4z m-193 -113 c-3 -5 -12 -10 -18 -10 -7 0 -6 4 3
10 19 12 23 12 15 0z m-300 -150 c-3 -5 -12 -10 -18 -10 -7 0 -6 4 3 10 19 12
23 12 15 0z m-258 -62 c-2 -13 -4 -3 -4 22 0 25 2 35 4 23 2 -13 2 -33 0 -45z
m34 -38 c23 11 23 10 4 -5 -22 -17 -37 -15 -43 6 -3 11 -2 12 6 0 7 -10 14
-11 33 -1z"/>
<path d="M3761 4064 c0 -11 3 -14 6 -6 3 7 2 16 -1 19 -3 4 -6 -2 -5 -13z"/>
<path d="M3626 4042 c-3 -5 1 -9 9 -9 8 0 12 4 9 9 -3 4 -7 8 -9 8 -2 0 -6 -4
-9 -8z"/>
<path d="M3666 4028 c3 -5 10 -5 16 -2 8 5 9 1 5 -10 -5 -11 -3 -15 5 -10 7 5
9 2 6 -8 -4 -8 0 -15 7 -15 12 0 11 5 0 27 -8 15 -21 27 -29 27 -8 0 -13 -4
-10 -9z"/>
<path d="M3583 4015 c0 -8 4 -12 9 -9 5 3 6 10 3 15 -9 13 -12 11 -12 -6z"/>
<path d="M3639 3953 c-12 -16 -12 -17 2 -6 9 7 20 9 24 5 5 -4 5 -1 1 6 -9 16
-11 15 -27 -5z"/>
<path d="M3536 3908 c3 -5 10 -6 15 -3 13 9 11 12 -6 12 -8 0 -12 -4 -9 -9z"/>
<path d="M3570 3898 c-12 -8 -12 -9 2 -5 9 3 19 1 22 -6 3 -9 5 -9 5 0 1 18
-13 23 -29 11z"/>
<path d="M3630 3905 c5 -22 -1 -29 -11 -15 -9 13 -10 13 -6 0 2 -8 9 -15 15
-15 5 0 14 -3 18 -7 11 -11 24 -10 24 2 0 6 -5 9 -12 8 -7 -2 -12 2 -13 9 0 6
-4 15 -8 20 -5 4 -8 4 -7 -2z"/>
<path d="M2301 3078 c-35 -101 -79 -225 -97 -276 l-34 -93 43 -19 c23 -10 54
-22 69 -25 25 -6 27 -4 44 50 10 32 23 59 29 61 6 3 53 -13 105 -33 l94 -38
22 -77 c13 -43 25 -81 28 -86 7 -12 126 -55 133 -48 5 5 -183 669 -197 695 -7
14 -141 71 -165 71 -6 0 -39 -82 -74 -182z m190 -112 l35 -134 -65 24 c-37 14
-69 28 -73 32 -7 7 53 212 62 212 3 0 21 -60 41 -134z"/>
<path d="M2847 2872 c-15 -9 -37 -37 -49 -60 -30 -63 -22 -185 18 -266 57
-116 192 -195 266 -155 20 11 21 9 16 -35 -7 -62 -23 -79 -66 -72 -45 7 -78
30 -102 68 -13 22 -37 39 -76 55 -32 12 -59 21 -62 18 -11 -11 11 -76 38 -114
59 -81 175 -141 274 -141 44 0 56 4 79 28 39 40 47 103 47 354 l0 219 -42 18
c-76 32 -88 34 -88 15 0 -12 -5 -10 -22 11 -28 36 -113 75 -163 75 -22 0 -53
-8 -68 -18z m209 -143 c33 -31 47 -81 42 -155 -5 -84 -21 -102 -77 -86 -22 7
-51 26 -65 42 -24 30 -51 123 -42 151 2 8 7 27 10 42 12 50 82 53 132 6z"/>
<path d="M3421 2638 c-35 -101 -79 -225 -97 -276 l-34 -93 43 -19 c23 -10 54
-22 69 -25 25 -6 27 -4 44 50 10 32 23 59 29 61 6 3 53 -13 105 -33 l94 -38
22 -77 c13 -43 25 -81 28 -86 7 -12 126 -55 133 -48 5 5 -183 669 -197 695 -7
14 -141 71 -165 71 -6 0 -39 -82 -74 -182z m190 -112 l35 -134 -65 24 c-37 14
-69 28 -73 32 -7 7 53 212 62 212 3 0 21 -60 41 -134z"/>
<path d="M3942 2324 l3 -316 59 -24 c33 -13 61 -24 63 -24 2 0 3 143 3 319 l0
318 -56 22 c-31 11 -60 21 -65 21 -6 0 -8 -127 -7 -316z"/>
<path d="M4222 2224 l3 -316 125 -50 c124 -50 211 -68 264 -54 77 19 126 111
126 235 0 153 -69 282 -194 365 -47 31 -291 136 -316 136 -7 0 -9 -111 -8
-316z m205 130 c76 -33 128 -85 153 -151 36 -96 22 -225 -29 -265 -31 -24 -82
-21 -153 11 l-48 20 0 206 c0 126 4 205 10 205 5 0 35 -11 67 -26z"/>
</g>
</svg>
