<?xml version="1.0" standalone="no"?>
<!DOCTYPE svg PUBLIC "-//W3C//DTD SVG 20010904//EN"
 "http://www.w3.org/TR/2001/REC-SVG-20010904/DTD/svg10.dtd">
<svg version="1.0" xmlns="http://www.w3.org/2000/svg"
 width="1024.000000pt" height="315.000000pt" viewBox="0 0 1024.000000 315.000000"
 preserveAspectRatio="xMidYMid meet">

<g transform="translate(0.000000,315.000000) scale(0.100000,-0.100000)"
fill="#000000" stroke="none">
<path d="M1974 2695 c-276 -50 -519 -244 -627 -500 -55 -131 -62 -170 -62
-340 1 -154 2 -164 33 -255 50 -144 104 -231 207 -336 130 -132 264 -205 440
-241 109 -22 302 -14 400 17 232 73 415 226 519 433 67 132 88 224 90 377 1
186 -40 332 -137 476 -188 283 -530 430 -863 369z m162 -430 c23 -284 29 -333
45 -351 11 -11 19 -36 20 -55 0 -29 19 -55 144 -194 79 -88 142 -162 140 -164
-2 -2 -79 59 -170 135 -106 89 -177 141 -198 146 -59 12 -87 79 -50 120 15 16
18 55 24 276 4 141 8 295 8 341 1 46 3 82 6 80 2 -3 16 -153 31 -334z"/>
<path d="M6842 2583 c1 -65 3 -97 5 -72 l4 47 51 4 c82 8 113 64 63 113 -19
20 -34 25 -75 25 l-50 0 2 -117z m112 81 c38 -38 2 -87 -61 -82 -38 3 -38 3
-41 51 l-3 47 45 0 c27 0 51 -6 60 -16z"/>
<path d="M7387 2693 c-11 -11 -8 -223 3 -223 6 0 10 23 10 50 0 50 0 50 33 50
30 0 36 -5 57 -50 13 -27 30 -50 37 -50 10 0 7 13 -12 49 l-27 48 26 26 c32
32 33 51 1 82 -19 20 -34 25 -73 25 -27 0 -52 -3 -55 -7z m117 -29 c36 -36 6
-74 -60 -74 l-44 0 0 45 0 45 44 0 c27 0 51 -6 60 -16z"/>
<path d="M7955 2675 c-21 -21 -25 -33 -25 -88 0 -50 5 -70 21 -91 28 -36 80
-36 116 0 23 23 25 31 21 96 -3 59 -8 73 -27 89 -33 27 -77 24 -106 -6z m99
-17 c20 -29 21 -117 1 -145 -21 -30 -51 -34 -80 -11 -21 17 -25 27 -25 77 0
69 19 101 60 101 18 0 34 -8 44 -22z"/>
<path d="M8516 2679 c-24 -19 -26 -26 -26 -95 0 -61 4 -78 20 -94 40 -40 130
-14 130 38 0 13 -5 10 -23 -12 -25 -31 -65 -38 -92 -16 -21 18 -21 143 1 164
28 28 94 11 94 -25 0 -5 5 -9 10 -9 6 0 10 6 10 14 0 20 -48 56 -75 56 -12 0
-34 -9 -49 -21z"/>
<path d="M9050 2585 l0 -115 71 0 c44 0 68 4 64 10 -3 6 -31 10 -61 10 l-54 0
0 44 0 45 53 4 52 3 -52 2 -53 2 0 45 0 45 61 0 c37 0 58 4 54 10 -3 6 -35 10
-71 10 l-64 0 0 -115z"/>
<path d="M9590 2680 c-41 -41 -17 -91 50 -105 43 -9 60 -22 60 -45 0 -38 -71
-58 -106 -29 -8 6 -18 9 -22 5 -13 -14 31 -36 70 -36 47 0 81 30 76 68 -3 27
-24 41 -82 59 -38 11 -55 37 -40 61 13 20 69 28 89 12 9 -8 15 -8 20 0 7 12
-35 30 -71 30 -13 0 -33 -9 -44 -20z"/>
<path d="M10120 2680 c-42 -42 -17 -92 52 -105 64 -12 78 -58 25 -83 -23 -11
-32 -11 -59 2 -36 18 -52 11 -24 -10 25 -18 86 -18 110 -1 13 9 17 23 14 52
-3 34 -7 41 -33 49 -74 22 -85 29 -85 50 0 42 46 60 91 36 12 -7 19 -7 19 -1
0 15 -34 31 -64 31 -14 0 -35 -9 -46 -20z"/>
<path d="M740 2683 c-154 -24 -325 -98 -431 -187 -134 -112 -239 -286 -280
-462 -28 -120 -23 -296 11 -414 27 -95 96 -225 162 -306 210 -260 594 -369
922 -262 113 37 306 148 306 177 0 4 -28 39 -62 78 l-61 71 -51 -41 c-61 -48
-171 -101 -244 -116 -76 -16 -228 -14 -297 5 -117 30 -202 80 -295 173 -133
134 -190 268 -190 451 0 252 132 465 361 580 205 104 459 80 645 -60 l51 -38
54 56 c103 107 102 92 7 155 -152 99 -316 148 -492 146 -50 -1 -102 -3 -116
-6z"/>
<path d="M5937 2675 c-144 -37 -263 -127 -319 -244 -29 -59 -33 -78 -36 -171
-3 -86 0 -115 16 -162 27 -77 73 -141 139 -192 69 -54 126 -83 323 -161 178
-70 257 -117 298 -181 56 -83 47 -189 -21 -270 -112 -130 -375 -137 -494 -12
-37 38 -69 106 -79 166 l-7 42 -103 0 c-121 0 -115 7 -84 -114 57 -225 220
-349 474 -363 240 -12 435 87 519 264 31 65 32 73 32 188 0 112 -2 123 -29
175 -40 77 -80 123 -145 168 -78 54 -124 77 -289 139 -227 85 -284 119 -324
197 -28 52 -30 143 -5 208 66 171 345 212 481 72 47 -48 65 -81 86 -159 l17
-60 97 -3 98 -3 -7 53 c-27 200 -140 350 -307 408 -82 28 -248 36 -331 15z"/>
<path d="M3050 1850 l0 -810 338 0 c365 0 395 4 498 56 29 15 78 52 109 82
223 221 155 610 -122 697 l-53 17 51 38 c115 86 160 201 139 353 -26 178 -152
314 -337 362 -44 12 -122 15 -340 15 l-283 0 0 -810z m567 615 c101 -30 164
-97 185 -196 18 -85 -1 -154 -58 -218 -70 -78 -116 -91 -319 -91 l-165 0 0
260 0 260 153 0 c107 0 169 -5 204 -15z m12 -696 c144 -17 214 -59 261 -152
56 -113 33 -252 -56 -325 -70 -58 -106 -65 -351 -70 l-223 -4 0 276 0 275 98
4 c53 1 117 4 142 5 25 1 83 -3 129 -9z"/>
<path d="M4180 2094 c0 -624 0 -624 63 -754 38 -77 157 -203 232 -244 251
-139 589 -103 787 83 70 66 118 138 157 239 l26 67 3 588 3 587 -100 0 -100 0
-4 -537 c-3 -459 -6 -546 -20 -592 -42 -140 -115 -232 -225 -284 -64 -31 -72
-32 -192 -32 -118 0 -129 2 -185 29 -105 52 -176 140 -221 276 -16 50 -18 107
-22 598 l-3 542 -100 0 -99 0 0 -566z"/>
<path d="M6850 1715 l0 -685 253 0 c138 0 278 4 311 10 131 21 248 106 304
219 24 50 27 67 27 161 0 97 -2 110 -30 164 -34 68 -89 119 -154 142 -65 24
-66 28 -23 57 89 58 133 176 113 300 -27 160 -132 267 -298 302 -47 10 -135
15 -285 15 l-218 0 0 -685z m490 511 c87 -32 139 -108 140 -204 0 -92 -41
-154 -130 -194 -37 -18 -66 -21 -185 -22 l-140 -1 -3 224 -2 224 137 -6 c91
-3 153 -11 183 -21z m115 -611 c175 -90 162 -336 -21 -405 -48 -17 -78 -20
-234 -20 l-180 0 0 231 0 231 188 -4 c187 -3 189 -3 247 -33z"/>
<path d="M7870 1530 l0 -870 85 0 85 0 0 420 0 420 138 0 c205 0 288 27 393
127 260 248 125 697 -230 763 -29 6 -148 10 -262 10 l-209 0 0 -870z m490 691
c108 -41 161 -121 168 -252 6 -112 -14 -176 -73 -234 -61 -61 -114 -77 -277
-82 l-138 -5 0 302 0 303 133 -5 c100 -5 145 -11 187 -27z"/>
<path d="M8792 1718 l3 -683 83 -3 82 -3 0 501 c0 275 3 500 8 500 5 0 237
-426 533 -983 l16 -30 274 511 274 510 3 -504 2 -504 85 0 85 0 0 685 0 686
-86 -3 -86 -3 -269 -499 c-147 -274 -272 -503 -277 -508 -6 -6 -98 155 -242
424 -128 238 -249 462 -268 498 -51 94 -44 90 -138 90 l-84 0 2 -682z"/>
</g>
</svg>
