<?xml version="1.0" standalone="no"?>
<!DOCTYPE svg PUBLIC "-//W3C//DTD SVG 20010904//EN"
 "http://www.w3.org/TR/2001/REC-SVG-20010904/DTD/svg10.dtd">
<svg version="1.0" xmlns="http://www.w3.org/2000/svg"
 width="320.000000pt" height="82.000000pt" viewBox="0 0 320.000000 82.000000"
 preserveAspectRatio="xMidYMid meet">

<g transform="translate(0.000000,82.000000) scale(0.100000,-0.100000)"
fill="#000000" stroke="none">
<path d="M1550 535 l0 -165 91 0 c81 0 90 2 87 18 -3 14 -15 17 -73 18 l-70 1
-3 57 -3 56 66 0 c58 0 65 2 65 20 0 18 -7 20 -65 20 l-65 0 0 55 0 55 73 0
c59 0 74 3 74 15 0 12 -17 15 -89 15 l-88 0 0 -165z"/>
<path d="M1760 535 c0 -140 2 -165 15 -165 13 0 15 25 15 165 0 140 -2 165
-15 165 -13 0 -15 -25 -15 -165z"/>
<path d="M2265 688 c-6 -15 -85 -308 -85 -314 0 -2 6 -4 14 -4 9 0 20 19 28
48 l14 47 49 0 50 0 11 -45 c7 -29 17 -46 28 -48 13 -3 17 1 13 15 -3 10 -22
84 -43 166 -32 122 -41 147 -56 147 -10 0 -21 -6 -23 -12z m49 -150 l7 -38
-36 0 c-38 0 -43 12 -26 66 5 16 13 43 17 59 l7 30 12 -40 c7 -22 15 -57 19
-77z"/>
<path d="M2820 645 c0 -19 -4 -35 -10 -35 -5 0 -10 -7 -10 -15 0 -8 5 -15 10
-15 6 0 10 -40 10 -99 0 -103 11 -131 45 -117 19 7 20 36 0 36 -12 0 -15 17
-15 90 0 73 3 90 15 90 8 0 15 7 15 15 0 8 -7 15 -15 15 -10 0 -15 11 -15 35
0 24 -5 35 -15 35 -10 0 -15 -11 -15 -35z"/>
<path d="M1863 596 c-24 -21 -28 -32 -31 -93 -5 -81 14 -129 52 -139 39 -9 59
-1 84 36 28 42 12 54 -23 16 -13 -14 -29 -26 -35 -26 -19 0 -50 40 -50 65 0
24 2 25 65 25 71 0 70 -1 55 65 -10 42 -40 75 -71 75 -10 0 -30 -11 -46 -24z
m87 -46 c18 -33 11 -40 -40 -40 -43 0 -50 3 -50 20 0 11 9 29 20 40 23 23 51
15 70 -20z"/>
<path d="M2045 596 c-65 -65 -34 -236 42 -236 23 0 63 31 63 49 0 5 3 16 6 25
4 11 1 16 -10 16 -9 0 -16 -6 -16 -13 0 -8 -9 -22 -19 -31 -22 -20 -54 -10
-65 20 -19 49 1 147 32 159 17 6 52 -21 52 -42 0 -7 7 -13 16 -13 13 0 15 6 9
28 -15 63 -67 81 -110 38z"/>
<path d="M2650 600 c-25 -25 -27 -81 -2 -101 9 -8 34 -22 55 -32 42 -19 50
-50 17 -67 -28 -15 -55 -5 -69 26 -13 30 -35 22 -25 -9 11 -37 35 -57 69 -57
36 0 60 22 70 62 10 37 -9 64 -59 86 -49 22 -59 33 -50 56 11 29 46 31 69 2
11 -14 24 -26 28 -26 15 0 6 37 -13 58 -26 27 -64 28 -90 2z"/>
<path d="M2967 598 c-13 -19 -16 -20 -16 -5 -1 9 -8 17 -16 17 -12 0 -15 -20
-15 -120 0 -100 3 -120 15 -120 12 0 15 16 15 85 0 72 3 88 20 105 11 11 25
20 30 20 6 0 10 9 10 20 0 27 -24 25 -43 -2z"/>
<path d="M3071 601 c-57 -57 -43 -216 20 -236 39 -13 69 3 89 48 24 52 25 94
4 147 -25 61 -75 79 -113 41z m74 -31 c21 -24 30 -95 16 -132 -15 -41 -44 -52
-73 -29 -45 37 -24 181 27 181 7 0 20 -9 30 -20z"/>
<path d="M2430 515 c0 -116 15 -155 59 -155 18 0 34 8 44 23 13 18 16 19 16 5
1 -10 7 -18 14 -18 9 0 12 31 12 120 0 84 -3 120 -12 120 -7 0 -12 -31 -15
-89 -2 -70 -7 -93 -22 -110 -23 -25 -30 -26 -50 -5 -12 12 -16 37 -16 110 0
77 -3 94 -15 94 -12 0 -15 -17 -15 -95z"/>
<path d="M62 539 c3 -10 31 -16 94 -20 91 -7 178 -32 241 -69 19 -11 39 -17
44 -14 20 12 -25 44 -105 75 -65 25 -101 33 -180 37 -81 4 -98 2 -94 -9z"/>
<path d="M36 442 c-10 -17 4 -20 86 -20 95 0 164 -20 250 -72 37 -22 72 -40
77 -40 41 0 -40 63 -137 107 -47 22 -76 27 -163 31 -67 3 -109 0 -113 -6z"/>
<path d="M32 349 c-31 -9 -41 -22 -24 -33 4 -2 30 0 57 6 60 13 157 -2 219
-34 22 -12 86 -51 141 -88 131 -87 192 -110 298 -110 69 0 91 4 142 28 33 16
75 45 93 66 41 47 75 113 62 121 -13 8 -30 -3 -30 -18 0 -19 -67 -98 -103
-122 -48 -33 -100 -47 -170 -46 -93 1 -143 20 -279 109 -68 45 -145 91 -172
103 -56 24 -182 34 -234 18z"/>
</g>
</svg>
