<?xml version="1.0" standalone="no"?>
<!DOCTYPE svg PUBLIC "-//W3C//DTD SVG 20010904//EN"
 "http://www.w3.org/TR/2001/REC-SVG-20010904/DTD/svg10.dtd">
<svg version="1.0" xmlns="http://www.w3.org/2000/svg"
 width="200.000000pt" height="329.000000pt" viewBox="0 0 200.000000 329.000000"
 preserveAspectRatio="xMidYMid meet">

<g transform="translate(0.000000,329.000000) scale(0.100000,-0.100000)"
fill="#000000" stroke="none">
<path d="M0 1645 l0 -1645 1000 0 1000 0 0 1645 0 1645 -1000 0 -1000 0 0
-1645z m1947 1492 l38 -37 3 -193 c2 -178 1 -194 -18 -225 -39 -64 -67 -72
-240 -72 -128 0 -161 -3 -189 -18 -61 -30 -76 -61 -79 -168 -4 -90 -5 -95 -34
-119 -28 -24 -36 -25 -155 -25 -124 0 -125 0 -154 29 -29 29 -29 30 -29 154 0
119 1 127 25 155 24 28 29 30 120 34 107 4 137 19 167 79 15 28 18 61 18 189
0 173 8 201 72 240 31 19 47 20 225 18 l193 -3 37 -38z m-537 -972 c42 -22 50
-43 50 -130 0 -91 17 -138 62 -165 29 -18 50 -20 188 -20 178 0 224 -13 260
-72 18 -30 20 -50 20 -211 0 -203 -7 -231 -69 -269 -34 -22 -46 -23 -216 -23
-196 0 -216 5 -260 63 -18 24 -21 47 -25 202 -5 185 -9 202 -56 239 -22 17
-41 21 -104 21 -153 0 -170 19 -170 190 0 131 6 152 48 174 38 21 232 22 272
1z"/>
</g>
</svg>
