<?xml version="1.0" standalone="no"?>
<!DOCTYPE svg PUBLIC "-//W3C//DTD SVG 20010904//EN"
 "http://www.w3.org/TR/2001/REC-SVG-20010904/DTD/svg10.dtd">
<svg version="1.0" xmlns="http://www.w3.org/2000/svg"
 width="400.000000pt" height="400.000000pt" viewBox="0 0 400.000000 400.000000"
 preserveAspectRatio="xMidYMid meet">

<g transform="translate(0.000000,400.000000) scale(0.100000,-0.100000)"
fill="#000000" stroke="none">
<path d="M1760 1742 c-40 -20 -60 -53 -60 -99 0 -30 -3 -33 -30 -33 -28 0 -30
-2 -30 -40 0 -38 2 -40 30 -40 l30 0 0 -130 0 -130 40 0 40 0 0 130 0 130 48
0 c47 0 48 0 58 40 l11 39 -55 3 c-31 2 -57 8 -59 13 -7 22 25 48 67 54 39 5
44 10 56 44 l13 37 -62 0 c-39 0 -75 -7 -97 -18z"/>
<path d="M1500 1710 l0 -40 45 0 45 0 0 40 0 40 -45 0 -45 0 0 -40z"/>
<path d="M1960 1710 l0 -40 45 0 45 0 0 40 0 40 -45 0 -45 0 0 -40z"/>
<path d="M300 1506 l0 -236 50 0 50 0 0 90 0 90 88 0 c110 0 166 22 187 74 31
74 9 163 -49 194 -24 13 -64 17 -178 20 l-148 4 0 -236z m278 132 c16 -16 16
-70 0 -86 -7 -7 -44 -12 -95 -12 l-83 0 0 55 0 55 83 0 c51 0 88 -5 95 -12z"/>
<path d="M778 1610 c-20 -11 -41 -28 -47 -37 -8 -15 -4 -20 32 -29 32 -8 48
-7 67 3 45 23 130 10 130 -21 0 -9 -23 -17 -75 -25 -151 -22 -218 -87 -181
-176 27 -64 139 -85 223 -43 27 13 33 14 37 2 3 -9 21 -14 47 -14 l41 0 -4
143 c-4 192 -16 208 -153 214 -66 3 -87 0 -117 -17z m182 -205 c0 -33 -4 -38
-42 -55 -44 -20 -84 -25 -112 -14 -23 9 -21 61 3 74 25 13 87 28 124 29 25 1
27 -2 27 -34z"/>
<path d="M1186 1607 c-73 -41 -102 -111 -85 -205 12 -61 35 -92 89 -119 77
-40 178 -26 235 31 35 35 32 53 -10 60 -28 6 -41 2 -62 -13 -28 -23 -91 -28
-124 -11 -24 13 -49 61 -49 95 0 34 25 82 49 95 32 17 96 12 123 -10 21 -16
31 -18 62 -9 20 5 36 14 36 18 0 18 -45 64 -76 77 -52 22 -142 18 -188 -9z"/>
<path d="M2189 1607 c-120 -62 -119 -264 1 -324 84 -43 197 -23 249 43 25 32
21 41 -24 50 -26 5 -40 1 -61 -15 -62 -48 -154 -14 -168 63 -8 41 -1 63 32 99
33 35 103 38 137 7 19 -18 25 -19 64 -7 l44 12 -29 34 c-15 19 -43 40 -61 47
-51 22 -133 18 -184 -9z"/>
<path d="M1500 1445 l0 -175 45 0 45 0 0 175 0 175 -45 0 -45 0 0 -175z"/>
<path d="M1960 1445 l0 -175 45 0 45 0 0 175 0 175 -45 0 -45 0 0 -175z"/>
<path d="M1800 1186 l-35 -13 -3 -251 -2 -252 45 0 45 0 0 125 c0 120 1 125
24 140 36 24 88 29 111 12 18 -14 20 -29 23 -146 l4 -131 39 0 39 0 0 140 c0
158 -9 189 -60 210 -42 18 -110 16 -149 -4 l-31 -17 0 101 c0 55 -3 100 -7 99
-5 0 -24 -6 -43 -13z"/>
<path d="M300 905 l0 -235 50 0 50 0 2 163 3 164 128 -164 128 -163 44 0 45 0
0 235 0 235 -50 0 -49 0 -3 -156 -3 -157 -120 157 -119 156 -53 0 -53 0 0
-235z"/>
<path d="M1538 1118 c-24 -8 -28 -15 -28 -49 0 -35 -3 -39 -25 -39 -23 0 -25
-4 -25 -45 0 -41 2 -45 25 -45 25 0 25 -1 25 -87 0 -121 12 -161 55 -179 36
-15 94 -18 133 -8 18 5 22 13 22 44 l0 38 -45 -6 c-67 -7 -75 4 -75 109 l0 89
43 0 c42 0 44 1 55 39 7 21 12 41 12 45 0 3 -25 6 -55 6 l-55 0 0 50 c0 55 -7
59 -62 38z"/>
<path d="M3508 1118 c-24 -8 -28 -15 -28 -49 0 -35 -3 -39 -25 -39 -23 0 -25
-4 -25 -45 0 -41 2 -45 25 -45 25 0 25 -1 25 -87 0 -121 12 -161 55 -179 36
-15 94 -18 133 -8 18 5 22 13 22 44 l0 38 -45 -6 c-67 -7 -75 4 -75 109 l0 89
49 0 c46 0 49 1 55 31 11 58 10 59 -49 59 l-55 0 0 50 c0 55 -7 59 -62 38z"/>
<path d="M926 1026 c-136 -50 -170 -219 -63 -313 32 -28 90 -53 122 -53 32 0
90 25 122 53 121 107 61 296 -102 321 -24 3 -55 0 -79 -8z m99 -78 c34 -15 55
-57 55 -108 0 -33 -6 -48 -29 -71 -62 -61 -161 -19 -161 70 0 55 19 91 55 107
38 17 48 17 80 2z"/>
<path d="M3200 1031 c-72 -15 -110 -52 -110 -109 0 -66 36 -95 138 -113 97
-16 102 -18 102 -39 0 -26 -14 -32 -70 -32 -33 0 -58 6 -78 21 l-30 21 -28
-22 c-16 -12 -31 -24 -34 -26 -3 -2 7 -14 23 -27 69 -61 226 -59 283 2 18 19
24 37 24 70 0 59 -29 87 -106 103 -139 29 -153 37 -122 68 17 17 89 15 114 -2
18 -13 24 -12 52 6 18 11 32 24 32 29 0 14 -71 46 -115 51 -22 3 -56 2 -75 -1z"/>
<path d="M1322 1008 c-19 -19 -22 -20 -22 -5 0 13 -9 17 -40 17 l-40 0 0 -175
0 -175 40 0 40 0 0 100 c0 117 15 166 54 176 14 3 33 4 41 0 12 -4 15 4 15 39
0 44 -1 45 -33 45 -20 0 -41 -8 -55 -22z"/>
<path d="M2770 1008 c-57 -39 -74 -71 -78 -148 -4 -58 -1 -75 19 -110 13 -22
37 -50 55 -61 70 -43 187 -33 239 21 l27 28 -40 21 c-39 20 -40 20 -57 1 -27
-30 -94 -27 -129 5 -14 13 -26 31 -26 40 0 13 20 15 140 15 l141 0 -6 38 c-12
67 -25 98 -53 124 -42 40 -66 48 -135 48 -50 0 -71 -5 -97 -22z m150 -63 c17
-9 30 -17 30 -19 0 -3 3 -11 6 -20 5 -14 -6 -16 -85 -16 -50 0 -91 3 -91 8 1
12 24 38 45 50 28 16 61 15 95 -3z"/>
<path d="M2110 1016 c0 -2 15 -44 34 -92 19 -49 48 -126 66 -171 l31 -83 39 0
38 0 37 111 c21 61 41 107 45 102 4 -4 23 -54 41 -110 l33 -103 41 0 40 0 63
168 c34 92 62 171 62 175 0 5 -19 7 -42 5 l-41 -3 -41 -109 c-22 -61 -41 -106
-43 -100 -2 5 -21 54 -41 109 l-37 100 -37 3 c-40 3 -36 10 -94 -155 -10 -29
-22 -53 -25 -53 -4 0 -23 47 -44 105 l-37 105 -44 0 c-24 0 -44 -2 -44 -4z"/>
<path d="M994 510 c-55 -22 -69 -91 -30 -137 19 -22 33 -28 64 -28 70 0 109
64 76 126 -21 42 -65 57 -110 39z m74 -36 c27 -19 29 -64 5 -87 -43 -38 -103
-15 -103 40 0 54 52 79 98 47z"/>
<path d="M2443 496 c-22 -19 -28 -32 -28 -65 0 -55 30 -86 85 -86 49 0 78 27
87 78 5 31 1 40 -25 67 -38 37 -80 40 -119 6z m95 -22 c31 -22 26 -70 -9 -97
-23 -16 -30 -17 -50 -7 -31 17 -39 29 -39 62 0 17 9 33 22 42 28 20 48 20 76
0z"/>
<path d="M3185 508 c-11 -6 -26 -18 -32 -26 -14 -17 -17 -69 -7 -97 8 -19 55
-45 84 -45 33 0 80 53 80 90 0 22 -9 41 -29 61 -31 30 -62 36 -96 17z m84 -44
c26 -33 26 -45 3 -74 -24 -30 -70 -30 -94 0 -23 29 -23 55 2 80 28 28 64 25
89 -6z"/>
<path d="M300 425 c0 -68 3 -85 15 -85 10 0 15 16 17 63 l3 62 48 -62 c27 -35
52 -63 58 -63 5 0 9 38 9 85 0 50 -4 85 -10 85 -5 0 -10 -25 -10 -55 0 -30 -4
-55 -8 -55 -5 0 -26 25 -48 55 -21 30 -47 55 -56 55 -16 0 -18 -11 -18 -85z"/>
<path d="M556 478 c-8 -18 -24 -55 -35 -81 -25 -58 -25 -57 -7 -57 8 0 18 9
21 20 10 30 87 29 108 -2 30 -45 27 -9 -6 68 -38 91 -59 105 -81 52z m52 -48
c11 -30 11 -30 -24 -30 -19 0 -33 4 -30 9 3 4 10 20 16 35 12 32 24 28 38 -14z"/>
<path d="M680 500 c0 -5 11 -10 25 -10 24 0 25 -2 25 -75 0 -60 3 -75 15 -75
12 0 15 15 15 75 0 73 1 75 25 75 14 0 25 5 25 10 0 6 -28 10 -65 10 -37 0
-65 -4 -65 -10z"/>
<path d="M870 425 c0 -50 4 -85 10 -85 6 0 10 35 10 85 0 50 -4 85 -10 85 -6
0 -10 -35 -10 -85z"/>
<path d="M1162 428 c2 -52 7 -83 15 -85 8 -3 13 15 15 59 l3 63 48 -62 c27
-35 52 -63 58 -63 5 0 9 38 9 85 0 98 -18 116 -22 23 l-3 -63 -45 62 c-26 36
-53 63 -63 63 -16 0 -18 -9 -15 -82z"/>
<path d="M1391 429 c-32 -78 -34 -117 -4 -71 21 31 98 32 108 2 3 -11 13 -20
21 -20 14 0 9 17 -40 133 -26 60 -47 50 -85 -44z m57 -27 c-40 -4 -43 0 -22
39 l17 33 17 -35 18 -34 -30 -3z"/>
<path d="M1580 425 l0 -85 55 0 c42 0 55 3 55 15 0 11 -12 15 -45 15 l-45 0 0
70 c0 40 -4 70 -10 70 -6 0 -10 -35 -10 -85z"/>
<path d="M1860 425 l0 -85 55 0 c42 0 55 3 55 15 0 11 -12 15 -45 15 l-45 0 0
70 c0 40 -4 70 -10 70 -6 0 -10 -35 -10 -85z"/>
<path d="M2074 473 c-9 -21 -24 -58 -35 -82 -23 -52 -23 -51 -5 -51 8 0 18 9
21 20 10 30 87 29 108 -2 30 -45 27 -9 -5 71 -38 94 -59 105 -84 44z m54 -43
c11 -30 11 -30 -24 -30 -19 0 -33 4 -30 9 3 4 10 20 16 35 12 32 24 28 38 -14z"/>
<path d="M2240 425 l0 -85 39 0 c64 0 91 15 91 49 0 16 -4 32 -10 36 -6 4 -5
15 2 30 17 38 -4 55 -68 55 l-54 0 0 -85z m95 40 c0 -16 -8 -21 -37 -23 -35
-3 -38 -1 -38 23 0 24 3 26 38 23 29 -2 37 -7 37 -23z m10 -70 c0 -16 -8 -21
-42 -23 -40 -3 -43 -2 -43 23 0 25 3 26 43 23 34 -2 42 -7 42 -23z"/>
<path d="M2630 425 c0 -50 4 -85 10 -85 6 0 10 14 10 30 0 42 35 41 71 -2 15
-18 30 -30 35 -26 4 5 0 16 -9 26 -21 23 -21 36 -2 52 18 15 20 61 3 78 -7 7
-36 12 -65 12 l-53 0 0 -85z m99 51 c19 -23 2 -46 -35 -46 -31 0 -34 3 -34 30
0 26 3 30 29 30 16 0 34 -6 40 -14z"/>
<path d="M2837 428 c-21 -50 -30 -85 -24 -87 6 -2 17 6 25 18 21 30 84 30 105
-1 30 -46 29 -6 -3 72 -44 106 -57 106 -103 -2z m72 11 c6 -18 11 -34 11 -35
0 -2 -13 -4 -30 -4 -16 0 -30 2 -30 4 0 14 24 66 30 66 4 0 13 -14 19 -31z"/>
<path d="M2980 500 c0 -5 14 -10 30 -10 l30 0 0 -75 c0 -43 4 -75 10 -75 6 0
10 32 10 75 l0 75 30 0 c17 0 30 5 30 10 0 6 -30 10 -70 10 -40 0 -70 -4 -70
-10z"/>
<path d="M3360 425 c0 -50 4 -85 10 -85 6 0 10 14 10 30 0 25 4 30 23 30 14 0
32 -12 45 -30 30 -41 49 -38 23 3 -20 32 -20 33 -1 45 22 14 27 61 8 80 -7 7
-36 12 -65 12 l-53 0 0 -85z m99 51 c21 -25 2 -46 -40 -46 -37 0 -39 2 -39 30
0 27 3 30 34 30 18 0 39 -6 45 -14z"/>
<path d="M3545 483 c10 -16 24 -37 32 -48 7 -11 13 -36 13 -57 0 -27 4 -38 15
-38 10 0 15 11 15 35 0 21 12 53 30 82 21 33 27 49 18 52 -7 2 -17 -4 -23 -14
-5 -9 -17 -26 -26 -38 -15 -20 -16 -19 -38 17 -12 20 -30 36 -38 36 -13 0 -13
-4 2 -27z"/>
</g>
</svg>
