<?xml version="1.0" standalone="no"?>
<!DOCTYPE svg PUBLIC "-//W3C//DTD SVG 20010904//EN"
 "http://www.w3.org/TR/2001/REC-SVG-20010904/DTD/svg10.dtd">
<svg version="1.0" xmlns="http://www.w3.org/2000/svg"
 width="300.000000pt" height="300.000000pt" viewBox="0 0 300.000000 300.000000"
 preserveAspectRatio="xMidYMid meet">

<g transform="translate(0.000000,300.000000) scale(0.100000,-0.100000)"
fill="#000000" stroke="none">
<path d="M1540 2280 c0 -5 5 -10 11 -10 5 0 7 5 4 10 -3 6 -8 10 -11 10 -2 0
-4 -4 -4 -10z"/>
<path d="M1300 2240 c0 -5 6 -10 14 -10 8 0 18 5 21 10 3 6 -3 10 -14 10 -12
0 -21 -4 -21 -10z"/>
<path d="M1395 2240 c-3 -5 1 -10 10 -10 9 0 13 5 10 10 -3 6 -8 10 -10 10 -2
0 -7 -4 -10 -10z"/>
<path d="M1480 2240 c0 -5 5 -10 10 -10 6 0 10 5 10 10 0 6 -4 10 -10 10 -5 0
-10 -4 -10 -10z"/>
<path d="M1510 2240 c0 -5 11 -10 25 -10 14 0 25 5 25 10 0 6 -11 10 -25 10
-14 0 -25 -4 -25 -10z"/>
<path d="M1615 2242 c10 -10 75 -12 75 -2 0 5 -18 9 -40 8 -22 -1 -38 -3 -35
-6z"/>
<path d="M1700 2240 c0 -5 5 -10 10 -10 6 0 10 5 10 10 0 6 -4 10 -10 10 -5 0
-10 -4 -10 -10z"/>
<path d="M1462 2210 c0 -14 2 -19 5 -12 2 6 2 18 0 25 -3 6 -5 1 -5 -13z"/>
<path d="M1258 2203 c7 -3 16 -2 19 1 4 3 -2 6 -13 5 -11 0 -14 -3 -6 -6z"/>
<path d="M1332 2018 c3 -117 4 -123 26 -133 30 -13 25 -47 -8 -55 -24 -6 -23
-7 9 -13 46 -10 61 -9 61 3 0 5 -6 9 -12 7 -8 -1 -14 10 -16 26 -3 25 -1 27
32 27 19 0 38 5 41 10 3 6 15 10 26 10 10 0 19 5 19 10 0 6 5 10 11 10 5 0 7
-4 4 -10 -7 -11 15 -13 39 -4 20 8 9 34 -15 34 -12 0 -19 7 -19 19 0 11 -4 23
-10 26 -5 3 -10 1 -10 -4 0 -6 -5 -11 -11 -11 -6 0 -8 9 -4 20 6 18 4 19 -21
10 -15 -6 -29 -8 -32 -5 -3 3 0 5 6 5 6 0 20 10 31 21 l20 21 80 -46 c44 -25
83 -46 86 -46 3 0 5 43 5 95 l0 95 -170 0 -171 0 3 -122z m182 86 c21 -8 20
-30 0 -38 -24 -9 -47 13 -33 30 13 16 12 16 33 8z"/>
<path d="M1717 2025 c-14 -10 -17 -24 -15 -60 l3 -46 20 37 c15 28 17 38 7 42
-10 3 -10 7 -1 18 16 20 8 25 -14 9z"/>
<path d="M1727 1946 c-9 -23 -9 -28 2 -22 5 3 11 -4 15 -17 8 -32 7 -39 -4
-32 -6 4 -10 -8 -10 -30 0 -20 -4 -34 -9 -31 -9 6 -6 54 4 84 3 8 0 12 -7 10
-14 -5 -25 -188 -11 -188 4 1 20 11 35 23 27 22 50 97 30 97 -6 0 -8 -10 -4
-22 3 -13 1 -19 -5 -15 -6 4 -16 -7 -23 -23 -17 -41 -25 -44 -27 -9 -1 16 2
27 6 24 14 -8 31 20 36 58 6 43 -18 120 -28 93z"/>
<path d="M1430 1801 c0 -5 11 -16 25 -25 18 -12 48 -16 122 -15 60 0 90 4 78
8 -11 5 -49 7 -84 5 -52 -3 -69 1 -89 16 -26 21 -52 26 -52 11z"/>
<path d="M1295 1791 c-3 -5 -1 -12 5 -16 5 -3 10 1 10 9 0 18 -6 21 -15 7z"/>
<path d="M1350 1781 c0 -5 5 -13 10 -16 6 -3 10 -2 10 4 0 5 -4 13 -10 16 -5
3 -10 2 -10 -4z"/>
<path d="M1243 1765 c0 -8 6 -15 14 -15 7 0 16 -6 19 -14 6 -16 37 -9 31 7 -2
6 -12 12 -22 13 -11 2 -21 8 -23 13 -5 16 -19 13 -19 -4z"/>
<path d="M1410 1710 c0 -5 5 -10 10 -10 6 0 10 5 10 10 0 6 -4 10 -10 10 -5 0
-10 -4 -10 -10z"/>
<path d="M1465 1710 c-7 -12 2 -12 30 0 19 8 19 9 -2 9 -12 1 -25 -3 -28 -9z"/>
<path d="M1330 1700 c0 -6 7 -10 15 -10 8 0 15 2 15 4 0 2 -7 6 -15 10 -8 3
-15 1 -15 -4z"/>
<path d="M1660 1700 c-13 -8 -12 -10 3 -10 9 0 17 5 17 10 0 12 -1 12 -20 0z"/>
<path d="M1717 1684 c-13 -13 -7 -34 13 -51 15 -13 20 -30 20 -69 0 -29 -5
-54 -11 -56 -5 -2 -13 -27 -16 -56 l-5 -52 31 0 c31 0 31 1 31 49 0 28 -4 53
-10 56 -5 3 -10 36 -10 72 0 57 -2 66 -21 70 -16 4 -17 8 -7 14 9 6 10 11 2
19 -6 6 -13 7 -17 4z"/>
<path d="M1273 1666 c3 -8 1 -17 -6 -20 -7 -2 -4 -5 6 -5 11 -1 17 6 17 19 0
11 -5 20 -11 20 -6 0 -9 -6 -6 -14z"/>
<path d="M1270 1575 c0 -8 4 -15 10 -15 5 0 7 7 4 15 -4 8 -8 15 -10 15 -2 0
-4 -7 -4 -15z"/>
<path d="M1300 1575 c0 -8 7 -15 15 -15 8 0 15 6 15 13 0 8 4 7 10 -3 9 -13
10 -13 10 0 0 13 1 13 10 0 8 -13 10 -13 10 1 0 11 -10 16 -35 17 -25 1 -35
-3 -35 -13z"/>
<path d="M1380 1573 c0 -7 5 -13 10 -13 6 0 10 5 10 12 0 9 3 9 12 0 16 -16
28 -15 28 3 0 11 -9 15 -30 13 -17 -1 -30 -8 -30 -15z"/>
<path d="M1453 1573 c0 -7 12 -13 27 -13 16 0 27 6 27 14 0 8 -10 13 -27 12
-15 0 -27 -6 -27 -13z"/>
<path d="M1530 1575 c0 -17 9 -19 28 -6 11 7 10 10 -3 15 -23 9 -25 8 -25 -9z"/>
<path d="M1599 1581 c11 -7 11 -9 0 -14 -8 -3 1 -6 19 -6 22 -1 32 4 32 14 0
18 -16 20 -23 3 -4 -10 -6 -10 -6 0 -1 6 -9 12 -18 12 -14 0 -15 -2 -4 -9z"/>
<path d="M1660 1573 c0 -18 27 -16 33 1 4 10 0 14 -14 13 -10 -1 -19 -7 -19
-14z"/>
<path d="M1716 1581 c-4 -7 -5 -15 -2 -18 9 -9 19 4 14 18 -4 11 -6 11 -12 0z"/>
<path d="M1505 1495 c17 -14 34 -25 39 -25 6 0 -5 11 -24 25 -43 32 -54 32
-15 0z"/>
<path d="M1231 1494 c0 -11 3 -14 6 -6 3 7 2 16 -1 19 -3 4 -6 -2 -5 -13z"/>
<path d="M1674 1499 c-3 -6 -20 -17 -38 -25 -17 -7 -23 -13 -14 -14 16 0 81
49 66 50 -4 0 -10 -5 -14 -11z"/>
<path d="M1220 1461 c0 -12 21 -19 43 -13 28 7 20 22 -13 22 -16 0 -30 -4 -30
-9z"/>
<path d="M1491 1460 c-8 -4 -16 -31 -19 -59 l-5 -51 32 0 c30 0 31 1 31 49 0
51 -16 76 -39 61z"/>
<path d="M1568 1463 c7 -3 16 -2 19 1 4 3 -2 6 -13 5 -11 0 -14 -3 -6 -6z"/>
<path d="M520 1130 c0 -5 5 -10 10 -10 6 0 10 -28 10 -65 0 -52 4 -69 20 -85
28 -28 75 -26 105 5 21 20 25 34 25 85 0 33 4 60 10 60 6 0 10 5 10 10 0 6
-11 10 -24 10 -14 0 -28 -4 -31 -10 -3 -5 -1 -10 4 -10 15 0 14 -123 -1 -138
-17 -17 -54 -15 -72 4 -18 18 -23 119 -6 129 21 13 9 25 -25 25 -19 0 -35 -4
-35 -10z"/>
<path d="M735 1130 c-3 -5 -1 -10 4 -10 15 0 14 -143 -1 -158 -9 -9 -5 -12 20
-12 30 0 44 14 21 22 -6 2 -9 25 -7 55 l3 52 55 -67 55 -67 3 80 c2 44 7 84
12 89 16 16 11 26 -13 26 -31 0 -40 -10 -21 -24 11 -9 14 -25 12 -61 l-3 -50
-54 68 c-53 65 -73 78 -86 57z"/>
<path d="M940 1130 c0 -5 5 -10 10 -10 6 0 10 -30 10 -69 0 -39 -4 -73 -10
-76 -21 -13 -9 -25 25 -25 19 0 35 5 35 10 0 6 -4 10 -10 10 -6 0 -10 30 -10
69 0 39 5 73 10 76 21 13 9 25 -25 25 -19 0 -35 -4 -35 -10z"/>
<path d="M1030 1133 c0 -3 6 -14 13 -22 7 -9 26 -47 42 -86 34 -84 29 -77 47
-70 8 3 28 37 43 76 16 38 34 74 42 80 22 19 15 29 -22 29 -36 0 -47 -13 -19
-24 17 -7 15 -19 -18 -93 l-20 -46 -28 64 c-15 36 -23 68 -18 74 16 18 8 25
-27 25 -19 0 -35 -3 -35 -7z"/>
<path d="M1250 1130 c0 -5 5 -10 10 -10 6 0 10 -30 10 -69 0 -39 -4 -73 -10
-76 -26 -16 -3 -25 65 -25 l75 0 0 33 -1 32 -20 -27 c-14 -20 -30 -28 -50 -28
-27 0 -29 2 -29 40 0 44 22 55 46 23 12 -16 13 -13 13 22 0 35 -1 38 -13 23
-23 -31 -46 -22 -46 17 0 33 2 35 34 35 23 0 38 -7 49 -22 16 -23 16 -23 16
10 l1 32 -75 0 c-43 0 -75 -4 -75 -10z"/>
<path d="M1440 1130 c0 -5 5 -10 10 -10 6 0 10 -30 10 -69 0 -39 -4 -73 -10
-76 -21 -13 -9 -25 25 -25 19 0 35 5 35 10 0 6 -4 10 -10 10 -6 0 -10 32 -10
76 l0 75 28 -3 c21 -2 28 -9 30 -31 3 -22 -1 -30 -17 -34 -12 -3 -21 -7 -21
-9 0 -2 12 -24 27 -49 20 -32 34 -45 50 -45 13 0 23 5 23 10 0 6 -4 10 -9 10
-5 0 -19 16 -31 34 l-21 35 20 20 c27 27 26 46 -1 65 -25 18 -128 22 -128 6z"/>
<path d="M1650 1116 c-28 -31 -22 -48 29 -80 50 -32 57 -44 37 -64 -14 -15
-18 -14 -45 6 -38 28 -43 28 -39 0 7 -51 128 -27 128 25 0 16 -13 30 -45 49
-30 18 -45 34 -45 48 0 27 44 27 63 0 15 -22 27 -17 27 11 0 37 -76 40 -110 5z"/>
<path d="M1795 1130 c-3 -5 -1 -10 4 -10 15 0 14 -143 -1 -158 -9 -9 -2 -12
31 -12 37 0 42 2 31 15 -8 10 -11 41 -8 95 l3 80 -27 0 c-15 0 -30 -4 -33 -10z"/>
<path d="M1900 1130 c0 -5 5 -10 10 -10 6 0 10 -30 10 -69 0 -39 -4 -73 -10
-76 -43 -27 61 -35 111 -9 17 8 37 30 45 50 12 29 12 39 0 68 -8 19 -23 39
-34 45 -26 14 -132 14 -132 1z m120 -30 c42 -42 15 -130 -41 -130 l-29 0 0 75
c0 73 1 75 25 75 14 0 34 -9 45 -20z"/>
<path d="M2182 1128 c-5 -7 -22 -42 -37 -78 -15 -36 -34 -73 -43 -82 -14 -17
-13 -18 21 -18 21 0 37 5 37 10 0 6 -7 10 -16 10 -11 0 -14 5 -10 16 3 9 6 20
6 25 0 5 18 9 40 9 30 0 42 -5 51 -22 9 -16 9 -23 0 -26 -24 -8 -9 -22 24 -22
33 0 46 12 26 24 -4 3 -23 42 -42 86 -18 44 -36 80 -40 80 -3 0 -11 -6 -17
-12z m26 -70 c11 -28 11 -28 -24 -28 -19 0 -33 4 -30 9 3 4 10 21 16 36 11 30
19 26 38 -17z"/>
<path d="M2315 1130 c-3 -5 -1 -10 4 -10 15 0 14 -143 -1 -158 -9 -9 1 -12 46
-12 53 0 61 3 92 34 49 49 42 120 -13 145 -30 14 -120 14 -128 1z m121 -31
c22 -25 25 -89 5 -113 -9 -11 -26 -16 -45 -14 -30 3 -31 4 -34 62 -2 32 -1 65
2 72 8 21 50 17 72 -7z"/>
<path d="M1144 841 c-79 -48 -54 -171 35 -171 37 0 104 39 69 40 -9 0 -20 -4
-23 -10 -12 -19 -63 -11 -79 12 -31 44 -9 128 33 128 10 0 30 -9 45 -21 l26
-20 0 24 c0 41 -54 50 -106 18z"/>
<path d="M1570 850 c-41 -4 -69 -7 -62 -8 15 -2 17 -138 2 -147 -26 -16 -3
-25 65 -25 l75 0 0 33 -1 32 -20 -27 c-14 -20 -30 -28 -50 -28 -27 0 -29 2
-29 40 0 33 3 40 20 40 11 0 20 -7 20 -15 0 -8 5 -15 10 -15 6 0 10 17 10 38
-1 33 -2 35 -14 20 -23 -31 -46 -22 -46 17 0 32 2 35 31 35 20 0 38 -8 50 -22
l18 -23 1 33 c0 17 -1 31 -2 30 -2 -1 -37 -4 -78 -8z"/>
<path d="M1944 841 c-79 -48 -54 -171 35 -171 37 0 104 39 69 40 -9 0 -20 -4
-23 -10 -12 -19 -63 -11 -79 12 -22 31 -20 84 4 108 25 25 41 25 74 -1 l26
-20 0 24 c0 41 -54 50 -106 18z"/>
<path d="M2168 848 c-9 -7 -28 -42 -43 -78 -15 -36 -34 -73 -43 -82 -14 -17
-12 -18 27 -18 26 0 40 4 36 10 -3 6 -13 10 -21 10 -17 0 -17 5 -4 31 15 27
75 26 90 -2 9 -15 8 -24 -1 -35 -10 -12 -5 -14 26 -14 20 0 35 3 33 8 -9 17
-65 139 -74 160 -8 19 -12 21 -26 10z m20 -70 c11 -28 11 -28 -24 -28 -19 0
-33 4 -30 9 3 4 10 21 16 36 11 30 19 26 38 -17z"/>
<path d="M1286 842 c6 -4 13 -35 16 -69 5 -75 26 -103 75 -103 52 0 73 28 73
98 0 32 5 63 12 70 9 9 6 12 -17 12 -23 0 -26 -3 -17 -12 15 -15 16 -102 2
-129 -12 -22 -59 -26 -78 -7 -16 16 -16 135 1 141 6 3 -8 6 -33 6 -25 0 -40
-3 -34 -7z"/>
<path d="M1698 838 c15 -15 16 -148 2 -148 -5 0 -10 -4 -10 -10 0 -5 15 -10
33 -10 29 1 30 2 14 14 -14 11 -17 25 -15 68 l3 53 54 -67 c30 -38 58 -68 63
-68 4 0 8 35 8 78 0 47 5 83 12 90 9 9 4 12 -22 12 -23 0 -30 -3 -22 -9 9 -5
12 -25 10 -59 l-3 -52 -48 60 c-32 40 -55 60 -69 60 -17 0 -19 -3 -10 -12z"/>
<path d="M760 830 c-19 -4 -29 -8 -22 -9 16 -1 16 -103 0 -119 -9 -9 -2 -12
32 -12 48 1 70 12 88 47 16 30 15 47 -5 71 -22 25 -48 31 -93 22z m68 -22 c17
-17 15 -74 -4 -92 -8 -9 -24 -16 -35 -16 -17 0 -19 7 -19 60 0 56 2 60 23 60
13 0 28 -5 35 -12z"/>
<path d="M898 823 c16 -6 16 -105 0 -121 -9 -9 2 -12 50 -12 57 0 62 2 62 22
0 20 -1 20 -18 5 -10 -10 -28 -17 -40 -17 -18 0 -22 6 -22 30 0 34 23 41 39
13 9 -15 10 -12 11 16 0 27 -3 32 -12 23 -21 -21 -38 -13 -38 18 0 25 -4 30
-22 29 -13 0 -17 -3 -10 -6z"/>
<path d="M986 815 c4 -8 10 -15 15 -15 5 0 9 7 9 15 0 8 -7 15 -15 15 -9 0
-12 -6 -9 -15z"/>
</g>
</svg>
