<?xml version="1.0" standalone="no"?>
<!DOCTYPE svg PUBLIC "-//W3C//DTD SVG 20010904//EN"
 "http://www.w3.org/TR/2001/REC-SVG-20010904/DTD/svg10.dtd">
<svg version="1.0" xmlns="http://www.w3.org/2000/svg"
 width="1668.000000pt" height="330.000000pt" viewBox="0 0 1668.000000 330.000000"
 preserveAspectRatio="xMidYMid meet">

<g transform="translate(0.000000,330.000000) scale(0.100000,-0.100000)"
fill="#000000" stroke="none">
<path d="M0 1650 l0 -1650 8340 0 8340 0 0 1650 0 1650 -8340 0 -8340 0 0
-1650z m2110 1630 c0 -6 -22 -109 -50 -230 -27 -121 -50 -224 -50 -230 0 -14
43 -13 62 3 9 6 44 100 77 207 34 107 66 205 71 218 11 25 50 31 50 7 0 -8
-18 -99 -40 -201 -40 -188 -46 -229 -32 -220 4 2 113 14 242 26 l235 22 42
-46 41 -46 228 70 c230 71 249 74 241 31 -1 -8 -94 -49 -215 -97 -118 -45
-216 -84 -217 -86 -2 -2 -1 -9 3 -15 5 -8 70 -4 242 18 129 16 238 29 243 29
16 0 6 -49 -10 -54 -10 -3 -114 -24 -230 -47 -137 -27 -213 -46 -213 -54 0
-14 114 -25 275 -25 61 0 134 -3 163 -6 46 -6 52 -9 52 -30 0 -18 -6 -24 -22
-24 -66 0 -453 -22 -457 -26 -6 -6 -24 -133 -23 -164 1 -14 4 -88 7 -165 l6
-140 -46 85 c-84 155 -114 178 -248 200 -248 39 -475 -163 -517 -461 -13 -91
-3 -176 65 -539 131 -699 139 -834 61 -1006 -52 -113 -175 -205 -318 -239 -98
-23 -190 -18 -488 25 -277 39 -557 70 -659 71 -31 0 -73 3 -95 7 l-38 7 73 50
c140 96 308 273 429 452 34 50 50 67 54 57 3 -9 6 -82 6 -164 l0 -148 65 -7
c136 -15 286 19 370 83 110 83 155 195 163 403 6 200 -6 281 -113 754 -77 336
-90 426 -82 565 16 261 134 469 320 560 l67 33 81 248 c76 232 83 249 105 249
13 0 24 -5 24 -10z m-555 -634 c-86 -121 -131 -263 -142 -446 -8 -144 7 -249
82 -575 95 -417 106 -483 112 -647 6 -164 -4 -242 -43 -325 -45 -95 -133 -146
-277 -159 l-74 -7 -6 144 c-6 138 -18 219 -53 338 l-16 54 -57 -114 c-122
-246 -334 -502 -519 -628 -73 -49 -213 -118 -259 -127 l-33 -6 40 68 c78 136
138 323 158 494 6 47 9 86 7 88 -2 2 -34 -6 -72 -17 -71 -21 -210 -53 -326
-76 l-67 -13 62 67 c144 153 292 418 389 699 17 50 34 92 38 92 3 0 48 -40
100 -88 l95 -88 -18 -62 -17 -61 27 -42 c14 -24 41 -74 59 -111 38 -80 44 -77
70 34 28 119 16 267 -31 376 l-16 37 -17 -37 -16 -37 -102 95 c-57 53 -103
102 -103 109 0 43 136 310 213 418 l34 48 87 -100 87 -101 -23 -39 -22 -39 45
-53 c26 -30 69 -85 97 -122 51 -69 51 -69 59 -40 18 70 1 386 -24 426 -2 4
-18 -4 -35 -18 -16 -14 -33 -25 -37 -25 -3 0 -44 44 -91 97 l-84 97 65 58
c197 181 387 302 614 394 44 18 81 33 83 33 2 1 -17 -28 -43 -63z m1439 -1297
c112 -504 -13 -796 -332 -777 -52 3 -91 12 -119 27 -58 29 -140 114 -186 192
-84 143 -171 435 -192 644 l-6 60 45 -94 c84 -171 193 -297 303 -349 49 -23
72 -27 143 -27 75 0 91 3 133 28 61 36 102 93 130 181 18 58 22 95 22 205 l0
133 17 -55 c9 -30 28 -106 42 -168z m-668 -1104 c8 -27 17 -89 20 -136 8 -104
18 -99 -180 -99 l-139 0 39 28 c80 58 169 182 205 286 l14 38 14 -33 c7 -19
20 -56 27 -84z"/>
<path d="M2075 2454 c-158 -31 -185 -44 -243 -109 -47 -54 -72 -118 -72 -188
l0 -49 46 61 c25 33 62 75 82 91 92 77 257 130 403 130 48 0 90 4 94 10 21 34
-206 74 -310 54z"/>
</g>
</svg>
